<?xml version="1.0" standalone="no"?><!DOCTYPE svg PUBLIC "-//W3C//DTD SVG 1.1//EN" "http://www.w3.org/Graphics/SVG/1.1/DTD/svg11.dtd"><svg t="1620749702009" class="icon" viewBox="0 0 1024 1024" version="1.1" xmlns="http://www.w3.org/2000/svg" p-id="3043" xmlns:xlink="http://www.w3.org/1999/xlink" width="128" height="128"><defs><style type="text/css">@font-face { font-family: Georgia; src: local("Source Serif Pro"); }
@font-face { font-family: Times; src: local("Source Serif Pro"); }
@font-face { font-family: "Time New Roman"; src: local("Source Serif Pro"); }
@font-face { font-family: Arial; }
@font-face { font-family: Helvetica; }
@font-face { font-family: "Helvetica Neue"; }
@font-face { font-family: "Open Sans"; }
@font-face { font-family: "Segoe UI"; }
@font-face { font-family: Tahoma; }
@font-face { font-family: Trebuchet; }
@font-face { font-family: "Trebuchet MS"; }
@font-face { font-family: Ubuntu; }
@font-face { font-family: Verdana; }
@font-face { font-family: Consolas; src: local("Source Code Pro"); }
@font-face { font-family: Courier; src: local("Source Code Pro"); }
@font-face { font-family: "Courier New"; src: local("Source Code Pro"); }
@font-face { font-family: "Lucida Console"; src: local("Source Code Pro"); }
@font-face { font-family: "Ubuntu Mono"; src: local("Source Code Pro"); }
@font-face { font-family: SimSun; src: local("Source Han Sans SC"); }
@font-face { font-family: SimSun-ExtB; src: local("Source Han Sans SC"); }
@font-face { font-family: 宋体; src: local("Source Han Sans SC"); }
@font-face { font-family: NSimSun; src: local("Source Han Sans SC"); }
@font-face { font-family: 新宋体; src: local("Source Han Sans SC"); }
@font-face { font-family: SimHei; src: local("Source Han Sans SC"); }
@font-face { font-family: 黑体; src: local("Source Han Sans SC"); }
@font-face { font-family: "Microsoft YaHei UI"; src: local("Source Han Sans SC"); }
@font-face { font-family: "Microsoft YaHei"; src: local("Source Han Sans SC"); }
@font-face { font-family: 微软雅黑; src: local("Source Han Sans SC"); }
@font-face { font-family: "STHeiti SC"; src: local("Source Han Sans SC"); }
@font-face { font-family: "PingFang SC"; src: local("Source Han Sans SC"); }
@font-face { font-family: 苹方-简; src: local("Source Han Sans SC"); }
@font-face { font-family: MingLiU; src: local("Source Han Sans TC"); }
@font-face { font-family: MingLiU-ExtB; src: local("Source Han Sans TC"); }
@font-face { font-family: PMingLiU; src: local("Source Han Sans TC"); }
@font-face { font-family: PMingLiU-ExtB; src: local("Source Han Sans TC"); }
@font-face { font-family: "Microsoft JhengHei UI"; src: local("Source Han Sans TC"); }
@font-face { font-family: "Microsoft JhengHei"; src: local("Source Han Sans TC"); }
@font-face { font-family: 微軟正黑體; src: local("Source Han Sans TC"); }
@font-face { font-family: "STHeiti TC"; src: local("Source Han Sans TC"); }
@font-face { font-family: "PingFang TC"; src: local("Source Han Sans TC"); }
@font-face { font-family: 蘋方-繁; src: local("Source Han Sans TC"); }
@font-face { font-family: MingLiU_HKSCS; src: local("Source Han Sans HC"); }
@font-face { font-family: MingLiU_HKSCS-ExtB; src: local("Source Han Sans HC"); }
@font-face { font-family: "PingFang HK"; src: local("Source Han Sans HC"); }
@font-face { font-family: 蘋方-港; src: local("Source Han Sans HC"); }
@font-face { font-family: "MS Gothic"; src: local("Source Han Sans"); }
@font-face { font-family: "MS PGothic"; src: local("Source Han Sans"); }
@font-face { font-family: "MS UI Gothic"; src: local("Source Han Sans"); }
@font-face { font-family: "Yu Gothic"; src: local("Source Han Sans"); }
@font-face { font-family: "Yu Gothic UI"; src: local("Source Han Sans"); }
@font-face { font-family: "Malgun Gothic"; src: local("Source Han Sans K"); }
</style></defs><path d="M912.3 191.5H749.6v-30c0-53.3-43.6-97-97-97H371.3c-53.3 0-97 43.6-97 97v30H111.7c-21.7 0-39.4 17.7-39.4 39.4s17.7 39.4 39.4 39.4h45.7v592.2c0 53.3 43.6 97 97 97h530.7c53.3 0 97-43.6 97-97V270.4h30.3c21.7 0 39.4-17.7 39.4-39.4s-17.8-39.5-39.5-39.5z m-566.8-9.2c0-26.8 22-48.8 48.8-48.8H636c26.8 0 48.8 22 48.8 48.8v9.2H345.5v-9.2zM811 841.7c0 26.8-22 48.8-48.8 48.8H271c-26.8 0-48.8-22-48.8-48.8V270.4H811v571.3z" fill="#1890FF" p-id="3044"></path><path d="M335.8 767.9c21.7 0 39.4-17.7 39.4-39.4V428.3c0-21.7-17.7-39.4-39.4-39.4s-39.4 17.7-39.4 39.4v300.1c0 21.7 17.7 39.5 39.4 39.5zM512 767.9c21.7 0 39.4-17.7 39.4-39.4V428.3c0-21.7-17.7-39.4-39.4-39.4s-39.4 17.7-39.4 39.4v300.1c0 21.7 17.7 39.5 39.4 39.5zM688.2 767.9c21.7 0 39.4-17.7 39.4-39.4V428.3c0-21.7-17.7-39.4-39.4-39.4s-39.4 17.7-39.4 39.4v300.1c0 21.7 17.7 39.5 39.4 39.5z" fill="#1890FF" p-id="3045"></path></svg>