<svg t="1656407555799" class="icon" viewBox="0 0 1024 1024" version="1.1" xmlns="http://www.w3.org/2000/svg" p-id="2117" width="200" height="200"><path d="M375.3728 841.8432c92.96-12.5184 203.8784-71.264 299.5456-166.9248 22.6112-22.6112 43.1616-46.08 61.5232-69.952C712.7616 786.3936 621.2608 921.6 512 921.6c-51.1488 0-98.4-29.632-136.6272-79.7568z m-87.808-422.8096C311.2384 237.6064 402.7328 102.4 512 102.4c51.1488 0 98.4 29.632 136.6272 79.7568-92.96 12.5184-203.8784 71.264-299.5456 166.9248a719.1232 719.1232 0 0 0-61.5232 69.952z m-129.536 139.5648c57.3248 74.2464 163.6608 140.9344 294.336 175.9488a719.1232 719.1232 0 0 0 91.3472 18.304c-168.9664 70.208-331.808 58.5728-386.432-36.0512-25.5744-44.288-23.5456-100.032 0.7552-158.2016z m322.2592-287.4496c168.9664-70.208 331.808-58.5728 386.432 36.0512 25.5744 44.288 23.5456 100.032-0.7552 158.2016-57.3184-74.2464-163.648-140.9344-294.336-175.9488a719.1232 719.1232 0 0 0-91.3408-18.304zM294.656 228.7552c-35.6352 86.7648-40.224 212.1984-5.2032 342.8736a719.1232 719.1232 0 0 0 29.8176 88.256C173.9904 548.6592 102.6432 401.824 157.2736 307.2c25.5744-44.288 74.8608-70.4 137.3824-78.4448z m410.0736 135.36c145.28 111.2256 216.6272 258.0608 161.9968 352.6848-25.5744 44.288-74.8608 70.4-137.3824 78.4448 35.6352-86.7648 40.224-212.1984 5.2032-342.8736a719.1232 719.1232 0 0 0-29.8176-88.256zM512 678.4c-88.3648 0-160-71.6352-160-160s71.6352-160 160-160 160 71.6352 160 160-71.6352 160-160 160z m0-83.2c42.4128 0 76.8-34.3872 76.8-76.8s-34.3872-76.8-76.8-76.8-76.8 34.3872-76.8 76.8 34.3872 76.8 76.8 76.8z" fill="#cdcdcd" p-id="2118"></path></svg>