<svg xmlns="http://www.w3.org/2000/svg" data-name="Layer 1" viewBox="0 0 700 550"><path fill="#efedef" d="M434.72342,476.22989c16.25-5.08,30.83-10.27,48.37-20.12,18.09-10.16,98.45-58.51,108.9-142.19a159.61541,159.61541,0,0,0-6.66-68.16c-3.23-9.47-9.93-28.49-26.84-47.3-20.7-23.04-44.32-31.97-58.17-37.02-29.14-10.63-53.58-10.07-65.22-9.69-12.56.41-34.73,1.33-59.93,12.34-16.44,7.18-26.66,15.37-41.72,27.61-23.86,19.41-27,27.49-68.74,67.57-11.46,11-20.88,19.67-35.26,28.21-9.97,5.92-18.03,9.23-32.9,15.27-36.55,14.85-47.50662,17.12038-58.91658,26.21676C97.01573,361.35108,109.189,394.39547,109.739,398.03547c3.05,20.07,17.23445,31.92442,23.94445,39.86442a113.09822,113.09822,0,0,0,32.9,26.44,210.24676,210.24676,0,0,0,26.96,11.89Z"/><path fill="#efedef" d="M486.31508,462.04467l-.49024-.87207c23.90039-13.42725,102.69727-63.76465,113.17774-147.73682a166.33529,166.33529,0,0,0-6.91406-70.772c-2.97657-8.73145-9.94922-29.17969-27.84766-49.09522-21.9209-24.39013-46.94531-33.51806-60.38965-38.42187a174.12591,174.12591,0,0,0-67.74707-10.06885c-12.4248.4043-35.55078,1.15625-62.24316,12.81152l-.40039-.916c26.86816-11.73242,51.00879-12.51758,62.61035-12.89453A175.01048,175.01048,0,0,1,504.193,154.20727c13.52637,4.93359,38.7041,14.11718,60.792,38.69335,18.03516,20.06739,25.05371,40.65088,28.05078,49.44092a167.40852,167.40852,0,0,1,6.959,71.21826C589.45668,397.99682,510.319,448.55883,486.31508,462.04467Z"/><rect width="466.289" height="163.829" x="116.166" y="311.152" fill="#bfceb6"/><rect width="305.418" height="336.244" x="196.601" y="139.986" fill="#d5efc8"/><rect width="179.87" height="39.169" x="259.375" y="100.817" fill="#d5efc8" transform="rotate(-180 349.31 120.401)"/><rect width="56.338" height="51.716" x="432.131" y="153.849" fill="#bfceb6" transform="rotate(-180 460.3 179.707)"/><rect width="56.338" height="51.716" x="358.664" y="153.849" fill="#bfceb6" transform="rotate(-180 386.833 179.707)"/><rect width="56.338" height="51.716" x="284.408" y="153.849" fill="#bfceb6" transform="rotate(-180 312.577 179.707)"/><rect width="56.338" height="51.716" x="210.152" y="153.849" fill="#bfceb6" transform="rotate(-180 238.32 179.707)"/><rect width="56.338" height="51.716" x="432.131" y="218.323" fill="#bfceb6" transform="rotate(-180 460.3 244.181)"/><rect width="56.338" height="51.716" x="358.664" y="218.323" fill="#bfceb6" transform="rotate(-180 386.833 244.181)"/><rect width="56.338" height="51.716" x="284.408" y="218.323" fill="#bfceb6" transform="rotate(-180 312.577 244.181)"/><rect width="56.338" height="51.716" x="210.152" y="218.323" fill="#bfceb6" transform="rotate(-180 238.32 244.181)"/><rect width="56.338" height="51.716" x="432.131" y="284.425" fill="#bfceb6" transform="rotate(-180 460.3 310.283)"/><rect width="56.338" height="51.716" x="358.664" y="284.425" fill="#bfceb6" transform="rotate(-180 386.833 310.283)"/><rect width="56.338" height="51.716" x="284.408" y="284.425" fill="#bfceb6" transform="rotate(-180 312.577 310.283)"/><rect width="56.338" height="51.716" x="210.152" y="284.425" fill="#bfceb6" transform="rotate(-180 238.32 310.283)"/><rect width="56.338" height="51.716" x="284.703" y="347.448" fill="#bfceb6" transform="rotate(-180 312.872 373.307)"/><rect width="56.338" height="51.716" x="210.447" y="347.448" fill="#bfceb6" transform="rotate(-180 238.616 373.307)"/><rect width="56.338" height="51.716" x="284.408" y="413.718" fill="#bfceb6" transform="rotate(-180 312.577 439.576)"/><rect width="56.338" height="51.716" x="210.152" y="413.718" fill="#bfceb6" transform="rotate(-180 238.32 439.576)"/><path fill="#bfceb6" d="M294.10805 122.19115q-1.49854-.51049-2.72364-1.03808a8.35171 8.35171 0 01-2.11035-1.27686 5.27849 5.27849 0 01-1.3789-1.7876 5.87339 5.87339 0 01-.49414-2.53613 5.572 5.572 0 012.23046-4.63037 9.95431 9.95431 0 016.24707-1.73633 17.03771 17.03771 0 012.72364.20459 8.12651 8.12651 0 012.16211.62988 3.76594 3.76594 0 011.41308 1.08936 2.47169 2.47169 0 01.51075 1.54883 2.72054 2.72054 0 01-.40918 1.51513 4.23019 4.23019 0 01-.98731 1.07227 7.70434 7.70434 0 00-2.00879-.834 10.07332 10.07332 0 00-2.75683-.35743 4.54611 4.54611 0 00-2.24707.42578 1.24088 1.24088 0 00-.71485 1.07227.988.988 0 00.44238.834 4.56529 4.56529 0 001.32715.59571l1.80469.5791a13.06445 13.06445 0 014.91992 2.60449 5.56816 5.56816 0 011.71875 4.30664 5.667 5.667 0 01-2.28027 4.68115q-2.28223 1.78711-6.707 1.7876a15.63632 15.63632 0 01-2.91114-.25537 9.21927 9.21927 0 01-2.3496-.749 4.33652 4.33652 0 01-1.56543-1.22559 2.68982 2.68982 0 01-.5625-1.68555 2.55527 2.55527 0 01.5791-1.68505 4.41983 4.41983 0 011.25976-1.07227 9.23414 9.23414 0 002.332 1.29346 8.12612 8.12612 0 003.0127.54492 4.04464 4.04464 0 002.34961-.51074 1.47115 1.47115 0 00.68066-1.1919A1.16531 1.16531 0 00297.07 123.366a7.09372 7.09372 0 00-1.53125-.69825zM317.66762 113.9182a5.04557 5.04557 0 00-4.01758 1.6001 6.67444 6.67444 0 00-1.39649 4.52832 6.29184 6.29184 0 001.54981 4.562 5.53251 5.53251 0 004.16992 1.6001 6.58383 6.58383 0 002.36621-.37451 16.13512 16.13512 0 001.85547-.85108 3.38413 3.38413 0 01.90234 1.14063 3.4943 3.4943 0 01.32325 1.54883 2.78956 2.78956 0 01-1.54883 2.36621 9.05591 9.05591 0 01-4.71484.97021 13.913 13.913 0 01-4.29-.647 9.55481 9.55481 0 01-3.50684-1.9917 9.38927 9.38927 0 01-2.36621-3.4043 12.63928 12.63928 0 01-.86816-4.91943 12.23262 12.23262 0 01.834-4.68164 9.95616 9.95616 0 012.28125-3.42139 9.6043 9.6043 0 013.38769-2.11084 11.92007 11.92007 0 014.15333-.71484 9.55505 9.55505 0 014.85156 1.02148 3.008 3.008 0 011.71972 2.62159 2.64518 2.64518 0 01-.44336 1.53173 3.63626 3.63626 0 01-1.02148 1.02149 11.07387 11.07387 0 00-1.88867-.98731A6.15793 6.15793 0 00317.66762 113.9182zM345.03969 130.26a9.36945 9.36945 0 01-1.17383.2041 12.4577 12.4577 0 01-1.583.10254 7.10977 7.10977 0 01-1.3789-.11914 2.45529 2.45529 0 01-1.00489-.42578 1.83269 1.83269 0 01-.6123-.85108 4.13618 4.13618 0 01-.2041-1.43017v-5.311h-6.53711V130.26a9.39226 9.39226 0 01-1.17481.2041 12.43455 12.43455 0 01-1.583.10254 7.11691 7.11691 0 01-1.3789-.11914 2.451 2.451 0 01-1.00391-.42578 1.84117 1.84117 0 01-.61328-.85108 4.15983 4.15983 0 01-.2041-1.43017V109.76488q.375-.06812 1.19141-.1875a10.90813 10.90813 0 011.5664-.11914 7.1241 7.1241 0 011.37891.11914 2.45669 2.45669 0 011.0039.42578 1.84375 1.84375 0 01.61329.85108 4.16259 4.16259 0 01.2041 1.42969v5.44726h6.53711v-7.96631q.37353-.06812 1.1914-.1875a10.90552 10.90552 0 011.56543-.11914 7.117 7.117 0 011.37891.11914 2.4553 2.4553 0 011.00488.42578 1.83538 1.83538 0 01.61231.85108 4.13913 4.13913 0 01.2041 1.42969zM348.444 120.04662a12.3584 12.3584 0 01.834-4.69824 9.47213 9.47213 0 015.68555-5.51563 12.92466 12.92466 0 018.47753 0 9.88037 9.88037 0 013.42188 2.09375 9.633 9.633 0 012.29785 3.42188 12.3584 12.3584 0 01.834 4.69824 12.71067 12.71067 0 01-.81739 4.71533 9.50156 9.50156 0 01-2.26367 3.43848 9.66851 9.66851 0 01-3.42187 2.09375 12.51028 12.51028 0 01-4.28907.71484 12.25213 12.25213 0 01-4.29-.73193 9.55488 9.55488 0 01-3.40429-2.12793 9.83535 9.83535 0 01-2.24707-3.43848A12.47409 12.47409 0 01348.444 120.04662zm6.12793 0a7.17891 7.17891 0 001.25977 4.62988 4.51108 4.51108 0 006.77539 0 9.12788 9.12788 0 00.0166-9.22607 4.12651 4.12651 0 00-3.38672-1.53223 4.208 4.208 0 00-3.38769 1.51514A7.03627 7.03627 0 00354.57191 120.04662zM372.37758 120.04662a12.3586 12.3586 0 01.834-4.69824 9.47213 9.47213 0 015.68555-5.51563 12.92469 12.92469 0 018.47754 0 9.88033 9.88033 0 013.42187 2.09375 9.63313 9.63313 0 012.29786 3.42188 12.3586 12.3586 0 01.834 4.69824 12.71067 12.71067 0 01-.81738 4.71533 9.50158 9.50158 0 01-2.26368 3.43848 9.66842 9.66842 0 01-3.42187 2.09375 12.51023 12.51023 0 01-4.28906.71484 12.252 12.252 0 01-4.29-.73193 9.55492 9.55492 0 01-3.4043-2.12793 9.83549 9.83549 0 01-2.24707-3.43848A12.47409 12.47409 0 01372.37758 120.04662zm6.12793 0a7.17891 7.17891 0 001.25976 4.62988 4.51108 4.51108 0 006.77539 0 9.12791 9.12791 0 00.01661-9.22607 4.12654 4.12654 0 00-3.38672-1.53223 4.208 4.208 0 00-3.3877 1.51514A7.03627 7.03627 0 00378.50551 120.04662zM400.49867 130.49828a2.93909 2.93909 0 01-3.166-3.166V109.7307q.375-.06812 1.1914-.187a10.83827 10.83827 0 011.56641-.11914 7.0858 7.0858 0 011.37891.11914 2.45623 2.45623 0 011.0039.42529 1.8438 1.8438 0 01.61328.85108 4.16368 4.16368 0 01.2041 1.43017V125.698h7.7959a4.47809 4.47809 0 01.44336 1.00439 4.23758 4.23758 0 01.2041 1.31055 2.61677 2.61677 0 01-.5791 1.92383 2.10583 2.10583 0 01-1.53222.56152z"/><rect width="146.584" height="23.491" x="349.31" y="344.203" fill="#bfceb6"/><rect width="72.665" height="100.279" x="387.635" y="375.951" fill="#bfceb6"/><path fill="#212121" d="M467.94838,382.33551q.15106,8.93147.21033,17.86293l.06408,17.86292-.06311,17.86294q-.05547,8.93145-.2113,17.86292-.15253-8.93146-.2113-17.86292l-.06312-17.86294.06409-17.86292Q467.793,391.267,467.94838,382.33551Z"/><path fill="#212121" d="M503.67421,418.06136q-8.93133.151-17.86292.21036l-17.86291.06405-17.86292-.06308q-8.93151-.05544-17.86291-.21133,8.93151-.15248,17.86291-.21132l17.86292-.06308,17.86291.064Q494.74282,417.906,503.67421,418.06136Z"/><path fill="#212121" d="M493.21034,443.32336q-6.42223-6.20872-12.77966-12.48225L467.75441,418.2554,455.168,405.57979q-6.2763-6.35469-12.48156-12.78042,6.42333,6.20767,12.78039,12.48157l12.67566,12.58639,12.58569,12.67629Q487.00483,436.898,493.21034,443.32336Z"/><path fill="#212121" d="M442.68642 443.32336q6.20874-6.42226 12.48217-12.77974l12.58582-12.67629L480.43 405.28094q6.35467-6.2763 12.78039-12.48157-6.20764 6.42331-12.48157 12.78042l-12.5863 12.67561-12.67639 12.58571Q449.11177 437.11776 442.68642 443.32336zM280.82118 383.06462q.15088 8.93147.21033 17.86293l.06409 17.86293-.06311 17.86293q-.05549 8.93146-.21131 17.86293-.15252-8.93147-.21142-17.86293l-.063-17.86293.064-17.86293Q280.66566 391.99609 280.82118 383.06462z"/><path fill="#212121" d="M316.547,418.79048q-8.93151.151-17.86291.21036l-17.86292.06405-17.863-.06309q-8.93133-.05543-17.86291-.21132,8.93152-.15247,17.86291-.21132l17.863-.06308,17.86292.064Q307.61543,418.63508,316.547,418.79048Z"/><path fill="#212121" d="M306.08314,444.05248q-6.42224-6.20874-12.77978-12.48225l-12.67627-12.58571-12.58643-12.67561q-6.2763-6.35469-12.48156-12.78043,6.42333,6.20769,12.78051,12.48158l12.67554,12.58639,12.58569,12.67628Q299.87751,437.62709,306.08314,444.05248Z"/><path fill="#212121" d="M255.5591,444.05248q6.20874-6.42227,12.4823-12.77975l12.58569-12.67628,12.67566-12.58639q6.35467-6.27632,12.78039-12.48158-6.20763,6.42333-12.48156,12.78043l-12.58643,12.67561-12.67627,12.58571Q261.98458,437.84686,255.5591,444.05248Z"/><path fill="#f73c4f" d="M359.16512,254.15c12.75294-18.77,14.96983-39.504,4.95155-46.31078s-22.206,9.29206-41.231,21.66136c-23.85556,15.51-24.5534,36.69-4.95154,46.31078C328.807,281.14783,346.41217,272.92,359.16512,254.15Z"/><path fill="#b02336" d="M339.97719,251.011a.27491.27491,0,0,1-.17871-.4834l.27832-.24121a.27477.27477,0,0,1,.36133.41406l-.28223.24414A.27346.27346,0,0,1,339.97719,251.011Zm1.10351-.96631a.27488.27488,0,0,1-.18261-.48q.41014-.36548.8125-.73a.27481.27481,0,0,1,.36914.40722q-.40429.36621-.81641.73291A.27266.27266,0,0,1,341.0807,250.04467Zm1.6211-1.47119a.27492.27492,0,0,1-.18653-.47657q.40284-.37353.7959-.74609a.27492.27492,0,0,1,.37891.39844q-.39551.375-.80176.751A.27292.27292,0,0,1,342.7018,248.57348Zm1.58886-1.50635a.27514.27514,0,0,1-.1914-.47217q.39551-.38379.78027-.76416a.27449.27449,0,1,1,.38672.38965q-.38671.38379-.78418.769A.27417.27417,0,0,1,344.29066,247.06713Zm1.55469-1.542a.27516.27516,0,0,1-.19629-.46729q.38673-.39258.76172-.78271a.27489.27489,0,0,1,.39649.38086q-.37794.39256-.76563.78662A.27478.27478,0,0,1,345.84535,245.52514Zm1.51758-1.57813a.27517.27517,0,0,1-.20117-.4624q.37646-.4021.74121-.80127a.27511.27511,0,0,1,.40625.37109q-.36768.40137-.74512.80518A.27554.27554,0,0,1,347.36293,243.947Zm1.47754-1.61621a.27091.27091,0,0,1-.18262-.06982.27487.27487,0,0,1-.02246-.3877q.36621-.41161.72168-.81933a.27445.27445,0,1,1,.41406.36035q-.356.41088-.72558.82422A.275.275,0,0,1,348.84047,242.3308Zm1.43555-1.65234a.27465.27465,0,0,1-.21-.45215q.356-.42114.69922-.83838a.2744.2744,0,1,1,.42383.34863q-.34423.42042-.70312.84424A.27434.27434,0,0,1,350.276,240.67846Zm1.38964-1.6919a.275.275,0,0,1-.21484-.44629q.34424-.43066.67578-.85742a.27456.27456,0,0,1,.4336.33692c-.22266.28662-.44825.57421-.67969.86328A.27614.27614,0,0,1,351.66566,238.98656Zm1.34278-1.73047a.27022.27022,0,0,1-.165-.05566.27474.27474,0,0,1-.05469-.38428q.33105-.44018.64942-.87646a.27434.27434,0,1,1,.44335.32324c-.21386.29346-.43066.58789-.65332.8833A.276.276,0,0,1,353.00844,237.25609Zm1.28906-1.769a.2721.2721,0,0,1-.1582-.05078.27517.27517,0,0,1-.06641-.38281q.31787-.44971.62305-.896a.27466.27466,0,1,1,.45312.31055c-.20508.29931-.41308.6001-.627.90283A.2752.2752,0,0,1,354.2975,235.48705Zm1.23535-1.80859a.27489.27489,0,0,1-.22949-.42627q.30322-.46.5918-.91455a.275.275,0,0,1,.46484.29394q-.29151.45922-.59766.92334A.27471.27471,0,0,1,355.53285,233.67846Zm1.17481-1.84717a.27547.27547,0,0,1-.23438-.41846q.28857-.47094.5625-.93457a.27451.27451,0,1,1,.47266.2793c-.18457.312-.37207.62646-.56641.94238A.27542.27542,0,0,1,356.70766,231.83129Zm1.11132-1.88672a.27527.27527,0,0,1-.23925-.41016q.271-.48047.52832-.95361a.27442.27442,0,1,1,.48242.26172q-.25782.47754-.53223.9624A.27493.27493,0,0,1,357.819,229.94457Zm1.04395-1.92432a.26964.26964,0,0,1-.126-.03076.27508.27508,0,0,1-.11816-.37012q.25341-.49071.49219-.97265a.27449.27449,0,1,1,.49218.24316q-.23877.48633-.49609.98145A.27411.27411,0,0,1,358.86293,228.02025Zm.9707-1.96338a.26565.26565,0,0,1-.11621-.02636.27433.27433,0,0,1-.13281-.36524q.23585-.501.4541-.99023a.27476.27476,0,1,1,.502.22363q-.22119.49438-.458,1A.27493.27493,0,0,1,359.83363,226.05687Zm.8916-1.99951a.27456.27456,0,0,1-.25293-.38134q.21387-.51051.41309-1.00831a.27438.27438,0,1,1,.50977.20313q-.19923.50244-.417,1.01807A.27409.27409,0,0,1,360.72523,224.05736Zm.8086-2.03466a.27581.27581,0,0,1-.25781-.37061q.19482-.52.36914-1.02441a.27486.27486,0,1,1,.51953.17968q-.17726.51051-.37305,1.03614A.27606.27606,0,0,1,361.53383,222.0227Zm.71972-2.06788a.27565.27565,0,0,1-.26171-.35839q.16845-.53028.32031-1.041a.271.271,0,0,1,.3418-.18506.27469.27469,0,0,1,.18554.34131q-.15381.51636-.32422,1.05176A.27511.27511,0,0,1,362.25355,219.95482Zm.61915-2.10107a.2763.2763,0,0,1-.26563-.34668q.14649-.53906.27148-1.05371a.2744.2744,0,1,1,.53321.12988q-.126.52076-.27344,1.06738A.27549.27549,0,0,1,362.8727,217.85375Zm.51562-2.12842a.26327.26327,0,0,1-.05762-.00635.27416.27416,0,0,1-.21093-.32617q.11718-.55078.21289-1.0664a.27514.27514,0,0,1,.541.10058c-.06543.34863-.13672.709-.21679,1.08106A.27478.27478,0,0,1,363.38832,215.72533Zm.39941-2.15381a.25179.25179,0,0,1-.042-.00341.27481.27481,0,0,1-.22949-.31348c.05859-.37647.10742-.73535.14941-1.07617a.27732.27732,0,0,1,.30567-.23926.27428.27428,0,0,1,.23926.30566q-.063.52-.15137,1.09375A.2744.2744,0,0,1,363.78773,213.57152Zm.26563-2.17382-.02441-.00147a.27377.27377,0,0,1-.249-.29785c.03418-.39356.0586-.75537.07422-1.082a.27473.27473,0,0,1,.54883.02636c-.01563.3335-.04.70215-.07617,1.1045A.27522.27522,0,0,1,364.05336,211.3977Zm.10254-2.19141a.2731.2731,0,0,1-.27442-.273c0-.68994-.0371-1.0625-.03808-1.06641a.275.275,0,0,1,.24512-.30127.26607.26607,0,0,1,.30175.24512c.002.01611.04.40088.04,1.11865A.27643.27643,0,0,1,364.1559,209.20629Z"/><path fill="#935b50" d="M336.56234 244.89524s1.49641 6.77047 9.59556 10.07339c0 0-8.74071 12.9206-15.18484 6.26483S336.56234 244.89524 336.56234 244.89524zM326.22738 227.24619l-.00062.00007q-1.63515 1.14135-3.341 2.2543c-7.90375 5.13874-13.26287 10.89985-16.18646 16.65679 7.01723 16.27967 26.2589-10.90872 26.2589-10.90872A8.39 8.39 0 01326.22738 227.24619zM354.90456 215.98971c-6.274-.66461-6.03573-5.8635-6.03572-5.86364-3.89555 2.53528-8.17931 6.06461-12.98 9.859v.00007c8.085.76314 5.68094 6.90038 5.68094 6.90038z"/><path fill="#f9977a" d="M382.84089,455.04844l-3.38612-1.44775c-5.92774-2.3436-12.04247-5.71979-16.54971-10.227l-3.01731-3.01731-.04116-.67106,5.656-72.22823,2.23865-43.55861-4.47731-28.054-33.59183-4.17844,12.77844,69.668,2.01006,78.35123.04959,17.53851a2.29538,2.29538,0,0,0,2.29417,2.29536l35.116.01834A2.33868,2.33868,0,0,0,382.84089,455.04844Z"/><path fill="#ef8b73" d="M390.08718,265.59763l6.60518,16.20388,2.57455,4.17395,14.5965,25.17656s12.77845-1.51051,12.57879-7.24431c0,0-14.502-25.70014-16.53537-26.69846l-7.62389-18.16936Z"/><path fill="#ef8b73" d="M426.14,304.84405c.17641-.2013-.47675-1.31654-.24689-1.17941l15.72349,9.88334s4.2204,2.4963,2.88319,9.89611a.55782.55782,0,0,1-.5478.45437h-.43195a.551.551,0,0,1-.55427-.5534c.00848-1.39677-.20736-5.07755-2.589-6.82118a.55633.55633,0,0,0-.787.76129,10.16817,10.16817,0,0,1,1.78793,4.51083.55532.55532,0,0,1-1.04235.31529c-.71836-1.34488-1.97522-2.9341-3.863-2.78976a.56774.56774,0,0,0-.502.38859l-.21994.69134a.55463.55463,0,0,1-.92352.22119l-11.55624-11.72429a.55462.55462,0,0,1-.02212-.75487Z"/><path fill="#935b50" d="M344.51013,447.67735l12.71545-2.396,2.66218-4.925,3.01713,3.01714c4.50907,4.50906,10.621,7.88115,16.54987,10.2272l3.38873,1.44756a2.33826,2.33826,0,0,1-.92067,4.48687l-35.11855-.01663a2.29716,2.29716,0,0,1-2.29613-2.29613v-9.545"/><path fill="#212121" d="M446.27262,347.80643a1.5492,1.5492,0,0,1-.27048-3.07424c13.40729-2.39349,12.55258-11.17627,12.5426-11.26462-.00393-.03267-.00666-.065-.00817-.09772a6.82688,6.82688,0,0,0-2.6195-5.11918c-7.55835-6.28976-27.80121-3.70142-28.00452-3.6745a1.54908,1.54908,0,0,1-.40542-3.07151c.88648-.11708,21.8019-2.78317,30.39166,4.36462a9.89976,9.89976,0,0,1,3.73168,7.34082h0c.07654,1.13941.36246,11.81436-15.08374,14.57182A1.53866,1.53866,0,0,1,446.27262,347.80643Z"/><path fill="#212121" d="M444.05159,340.39178q-.4493,0-.91734-.016a1.54907,1.54907,0,0,1,.10589-3.09632c2.72146.09409,6.20686-.23115,7.3263-2.30424,1.59687-2.95775-1.645-8.72348-2.90631-10.51a1.54892,1.54892,0,0,1,2.53054-1.78688c.61116.8653,5.89009,8.60459,3.10207,13.76885C451.87831,339.0666,448.7714,340.39178,444.05159,340.39178Z"/><path fill="#6c7fd8" d="M363.26388,295.8445l4.4773,28.054-1.23505,45.75146a1.32505,1.32505,0,0,1-1.32457,1.2893H341.40621L329.672,291.666Z"/><path fill="#065ea5" d="M391.93617,330.88891l-.55273-.041c.72851-9.84473-9.24024-11.14551-9.665-11.19629l.06445-.55078C381.89223,319.11352,392.70473,320.51146,391.93617,330.88891Z"/><path fill="#212121" d="M280.8211,361.35108a57.43941,57.43941,0,1,0,57.43944,57.4394A57.43685,57.43685,0,0,0,280.8211,361.35108Zm0,109.30216a51.86276,51.86276,0,1,1,51.8628-51.86276A51.85977,51.85977,0,0,1,280.8211,470.65324Z"/><path fill="#212121" d="M280.82094 461.46654a42.676 42.676 0 1142.67578-42.67627A42.72454 42.72454 0 01280.82094 461.46654zm0-84.87646a42.20044 42.20044 0 1042.20117 42.20019A42.24848 42.24848 0 00280.82094 376.59008zM467.94887 461.46654a42.676 42.676 0 1142.6748-42.67627A42.72454 42.72454 0 01467.94887 461.46654zm0-84.87646a42.20044 42.20044 0 1042.20019 42.20019A42.24848 42.24848 0 00467.94887 376.59008z"/><path fill="#212121" d="M467.9484,361.35108a57.43941,57.43941,0,1,0,57.4394,57.4394A57.43685,57.43685,0,0,0,467.9484,361.35108Zm0,109.30216a51.86276,51.86276,0,1,1,51.86276-51.86276A51.85979,51.85979,0,0,1,467.9484,470.65324Z"/><circle cx="467.948" cy="418.79" r="7.473" fill="#f65b2b"/><path fill="#f65b2b" d="M445.4872,370.33385l-10.42232-49.29572-4.24359.89737,3.62578,17.14967-100.08439,2.76211-9.18442-22.79881-4.27829.98761,9.56478,23.74289-51.42266,73.77146,3.558,2.48033,49.80121-71.44466,32.44546,80.54028L437.443,353.25546l3.918,18.53185,24.65285,48.65552,3.869-1.96054Zm-79.12827,50.93828-30.26746-75.13352,99.26761-2.73973.99747,4.71793Z"/><path fill="#f65b2b" d="M336.4518,404.433c2.76416,1.41809,5.47888,2.909,8.16137,4.44728,2.70166,1.51016,5.33716,3.118,7.99671,4.69018,2.62317,1.62592,5.27405,3.211,7.87439,4.87047q3.91479,2.46838,7.77575,5.01609l-1.74658-.2854q10.43061-3.10413,21.02808-5.60924c3.542-.80094,7.08447-1.60031,10.66-2.28051,3.573-.68986,7.15955-1.33092,10.80225-1.77062-3.34473,1.50831-6.74573,2.81527-10.16016,4.07344-3.41186,1.26781-6.85693,2.41646-10.30249,3.56354q-10.35937,3.35933-20.89709,6.07889l-.97376.25334-.77307-.5388q-3.79486-2.64507-7.53772-5.36708c-2.504-1.80161-4.95764-3.67756-7.439-5.5127-2.44483-1.88882-4.91382-3.74209-7.31665-5.693C341.182,408.44612,338.79225,406.476,336.4518,404.433Z"/><path fill="#212121" d="M316.48031,315.16816l28.02783,12.009-35.58079-5.97667a3.11156,3.11156,0,0,1-.57757-6.19626l.00645-.00112C311.09031,314.35474,313.8975,314.06151,316.48031,315.16816Z"/><path fill="#f9977a" d="M407.58266,409.53573l-3.38615-1.44776c-5.92771-2.34363-12.04244-5.71982-16.54971-10.22706l-3.01727-3.01727,13.19426-63.97507c1.73918-12.2333-9.93188-17.44143-9.93188-17.44143l-22.16355-7.71993L354.94627,296.723c-12.11993-.80885-31.19888-5.62257-35.2713-8.5887,0,0-10.83849,19.18342.98518,29.36137a7.42492,7.42492,0,0,0,1.00392.71595c3.821,2.31506,24.95369,15.9758,48.93905,19.01972l-1.41414,52.2319.06293,22.24781a2.29536,2.29536,0,0,0,2.29414,2.29536l35.116.01838A2.33868,2.33868,0,0,0,407.58266,409.53573Z"/><path fill="#6c7fd8" d="M387.89191,313.42714l-22.16355-7.71993L354.94625,296.723c-12.11991-.80883-31.19886-5.62255-35.27127-8.58867,0,0-10.83941,19.185.98664,29.36261a7.43139,7.43139,0,0,0,1.00216.71456c3.76792,2.28275,23.91862,16.2316,47.48322,19.53419a1.65937,1.65937,0,0,0,1.56835-.67181Z"/><path fill="#dd765e" d="M370.49745,337.23135a7.505,7.505,0,0,1,.8219-1.32653,9.3,9.3,0,0,1,1.03955-1.16546,6.39639,6.39639,0,0,1,1.26856-.94078,2.42662,2.42662,0,0,1,1.53234-.37762,3.73674,3.73674,0,0,0-1.29821.73425c-.38208.31714-.76172.639-1.12366.98856C371.99977,335.82811,371.29213,336.55112,370.49745,337.23135Z"/><path fill="#ffba55" d="M395.11773,235.90577s6.658,13.61933,9.18568,22.25645l-15.51118,8.1127-4.07618-12.04318Z"/><path fill="#ffba55" d="M379.94382,220.37573c-1.80859.381-4.0311,2.38137-7.4906,4.38589-5.5381,3.20862-8.46432,3.44429-12.69422,5.24357-6.04279,2.57035-9.82978,6.24047-13.81685,10.10393a84.106,84.106,0,0,0-12.53025,15.93563,48.34682,48.34682,0,0,1-6.253,8.77472c-2.95,3.20624-5.38788,4.79557-6.44743,6.8836-3.61251,7.119-3.50919,11.88089-1.572,16.85094,6.49083,16.653,43.18809,14.13878,44.76648,8.88059.33382-1.11176-.78695-2.73235.21084-4.54091,1.07417-1.947,4.44949-4.09107,4.92409-4.3147,7.53051-3.54836,14.66989-15.02621,22.06422-32.026,4.64538-10.67985,6.14439-19.74187,1.58386-26.86209C389.72553,225.06415,385.30265,219.24652,379.94382,220.37573Z"/><path fill="#f9977a" d="M382.74837,215.6929l-2.80455,4.68283s2.497,15.28324,9.9058,20.89767a2.37333,2.37333,0,0,0,2.7942.11736c.92124-.65746.74555-1.58571.30757-2.91464a7.36452,7.36452,0,0,1,.71657-6.19077l1.18747-1.91593-7.20938-18.737Z"/><path fill="#dd765e" d="M387.64606,211.63243s-1.16878,3.31163-1.23295,3.69166c-1.55615,9.22377.18392,18.9425,6.2164,19.96028.03837.00647.455-1.89964.49335-1.89377a7.28479,7.28479,0,0,1,.55721-1.12482l1.17539-1.89637Z"/><path fill="#f9977a" d="M408.6189,216.64671c-1.5562,9.22375-7.708,15.876-13.74047,14.85824s-9.66119-9.32017-8.105-18.54392,7.62338-14.9459,13.74046-14.85824C407.29979,198.2,410.17509,207.423,408.6189,216.64671Z"/><path fill="#f9977a" d="M390.823,208.30689c.05188,2.96224-1.232,5.38684-2.86771,5.41548s-3.0037-2.3495-3.05558-5.31174-.25653-5.85452,1.37914-5.88317S390.77114,205.34465,390.823,208.30689Z"/><ellipse cx="398.177" cy="210.243" fill="#212121" rx="1.352" ry="1.062" transform="rotate(-85.001 398.177 210.243)"/><ellipse cx="407.308" cy="212.482" fill="#212121" rx="1.352" ry="1.062" transform="rotate(-85.001 407.308 212.482)"/><path fill="#212121" d="M395.74068 207.49385a.44542.44542 0 01-.176-.85469c.148-.06364 3.64836-1.53887 5.9996-.27221a.44507.44507 0 01-.422.78375c-1.97885-1.06449-5.19423.29291-5.2262.30692A.44794.44794 0 01395.74068 207.49385zM410.25157 211.02133a.44572.44572 0 01-.41927-.29566 3.13586 3.13586 0 00-3.50555-2.16672.4453.4453 0 11-.15894-.87631 4.08724 4.08724 0 014.503 2.74342.44582.44582 0 01-.41928.59527z"/><path fill="#dd765e" d="M403.629,210.2165a5.50157,5.50157,0,0,0-.13159,2.83188,13.11467,13.11467,0,0,0,.79785,2.73942l.31348.66081a1.24962,1.24962,0,0,1,.09814.91671,1.97373,1.97373,0,0,1-1.18408,1.15826,3.31,3.31,0,0,1-2.9397-.4671,3.70269,3.70269,0,0,0,2.73719.02464,1.559,1.559,0,0,0,.81726-.87227.66241.66241,0,0,0-.08167-.50415l-.32849-.66006a9.808,9.808,0,0,1-.70874-2.92014A4.46755,4.46755,0,0,1,403.629,210.2165Z"/><path fill="#212121" d="M394.80019 209.73464a3.5369 3.5369 0 011.4065-.92757 4.43113 4.43113 0 011.69165-.29231 4.62091 4.62091 0 011.67468.35876 4.56642 4.56642 0 011.41327.90946c-.53811-.16743-1.03853-.355-1.55623-.46887a7.094 7.094 0 00-1.54451-.20625 6.49693 6.49693 0 00-1.54755.14155A8.101 8.101 0 00394.80019 209.73464zM404.37332 211.08386a3.53707 3.53707 0 011.61659-.47466 4.43133 4.43133 0 011.703.21627 4.62277 4.62277 0 011.49609.83383 4.56544 4.56544 0 011.08458 1.28372c-.4654-.31781-.88879-.6438-1.35047-.90437a7.093 7.093 0 00-1.41624-.64985 6.4966 6.4966 0 00-1.52106-.31818A8.10153 8.10153 0 00404.37332 211.08386z"/><path fill="#212121" d="M393.47734,206.37057c-1.1943,2.14705-2.75118,5.23324-2.65281,6.57244L388.85029,211.89s1.347-5.2462.82313-6.89247c-.21252-.66793-2.22555-2.35566-3.51311-.898s-1.20915,7.678.21892,8.84349c0,0-4.113,4.21549-4.37417,3.991s.61709-10.25978.61709-10.25978-7.05124-12.67684,7.10892-14.36052c0,0,.13585-5.05106,10.85211-.898,0,0,5.77745-6.51025,4.655,1.12246,0,0,11.67356-4.82657,6.51026,4.48983,0,0,7.9813,5.4214-3.32389,9.27212a47.47723,47.47723,0,0,1-4.16267-3.2936,8.193,8.193,0,0,0-5.69784-2.31348c-1.62873.02741-3.177.54854-3.63072,2.28021A14.76393,14.76393,0,0,1,393.47734,206.37057Z"/><path fill="#e6952a" d="M372.62465 227.24761c.08716 1.20915.05725 2.39482.04822 3.57922l-.02393 1.77143a13.38415 13.38415 0 00.085 1.77736 5.04875 5.04875 0 01-.50647-1.74752 11.41911 11.41911 0 01-.10364-1.80975 14.92526 14.92526 0 01.13843-1.79929A11.49244 11.49244 0 01372.62465 227.24761zM353.55189 250.41544a7.88246 7.88246 0 012.12854 1.4415 9.08 9.08 0 011.64527 2.006 8.4 8.4 0 011.01416 2.39047 8.24982 8.24982 0 01.26428 2.55776 16.86083 16.86083 0 00-.66772-2.43166 11.90869 11.90869 0 00-1.07923-2.23027A14.41833 14.41833 0 00353.55189 250.41544zM345.88734 288.60557q1.97314.76619 3.988 1.35681a38.08832 38.08832 0 004.07422.97636 28.381 28.381 0 004.14905.504 27.40717 27.40717 0 004.19751-.13481 16.86563 16.86563 0 01-4.20594.55737 23.82466 23.82466 0 01-4.24108-.387 30.03317 30.03317 0 01-4.10389-1.11579A23.13537 23.13537 0 01345.88734 288.60557zM343.51015 280.67695q1.59521 1.39811 3.28918 2.64684a38.46457 38.46457 0 003.499 2.32133 28.65706 28.65706 0 003.73084 1.90494 27.4904 27.4904 0 003.99609 1.32154 16.92375 16.92375 0 01-4.14953-.92772 24.03234 24.03234 0 01-3.85718-1.82663 30.29718 30.29718 0 01-3.47864-2.46222A23.32252 23.32252 0 01343.51015 280.67695zM395.428 239.1318a31.30981 31.30981 0 01-.55127 6.44769 54.07052 54.07052 0 01-1.56628 6.29339 59.86521 59.86521 0 01-2.36853 6.03463c-.43.99118-.95813 1.93646-1.434 2.90411-.52051.94562-1.06433 1.87827-1.61609 2.80324.92041-1.95108 1.85327-3.88706 2.66284-5.8768.83777-1.977 1.57288-3.99369 2.23328-6.03313.66516-2.03848 1.21594-4.112 1.676-6.20673A45.11885 45.11885 0 00395.428 239.1318z"/><path fill="#77312a" d="M396.33334,218.84113s2.20262,8.75073,6.95924,4.56466"/><path fill="#f65b2b" d="M380.67146,432.02816l-7.14753-4.46432a5.57664,5.57664,0,0,1-2.024-7.243l3.4778-6.889-4.42513-2.234-2.81675,5.5796a5.57664,5.57664,0,0,1-7.93248,2.21667l-3.69128-2.30556-2.62615,4.20427,4.93558,3.08275a5.57663,5.57663,0,0,1,2.024,7.243l-2.902,5.74853,4.42513,2.234,2.241-4.4391a5.57665,5.57665,0,0,1,7.93248-2.21667l5.90324,3.68713Z"/><path fill="#935b50" d="M369.25189,402.16461l12.71545-2.396,2.66217-4.925,3.01714,3.01713c4.50906,4.50906,10.621,7.88115,16.54987,10.2272l3.38873,1.44756a2.33826,2.33826,0,0,1-.92067,4.48688l-35.11856-.01664a2.29717,2.29717,0,0,1-2.29613-2.29613v-9.545"/><path fill="#dd765e" d="M384.71608 333.421a10.41086 10.41086 0 002.08533 2.40009 5.75023 5.75023 0 002.761 1.29738 6.24853 6.24853 0 003.03845-.338 15.45477 15.45477 0 001.4524-.63686c.46081-.26763.91223-.55586 1.39111-.81738-.40112.36037-.82764.69766-1.24866 1.04895a14.89987 14.89987 0 01-1.43762.80191 5.84644 5.84644 0 01-3.28528.4884 5.48242 5.48242 0 01-2.95324-1.52675A7.53992 7.53992 0 01384.71608 333.421zM360.08546 373.14019a10.41072 10.41072 0 00-1.24353 2.92621 5.7502 5.7502 0 00.0437 3.0503 6.24852 6.24852 0 001.63538 2.58308 15.4461 15.4461 0 001.20886 1.0264c.44251.29694.89942.57642 1.34436.8923-.49975-.20268-.98974-.4382-1.49011-.66277a14.88468 14.88468 0 01-1.35083-.94086 5.846 5.846 0 01-1.87854-2.739 5.482 5.482 0 01.07813-3.32365A7.54139 7.54139 0 01360.08546 373.14019z"/><path fill="#f65b2b" d="M289.72479,347.19981a2.06372,2.06372,0,0,1-.04756-4.12687l42.31108-.99031a2.06381,2.06381,0,0,1,.09673,4.12648l-42.31108.9903Z"/><path fill="#f73c4f" d="M346.04334,279.48973c-7.48916,0-17.30823-2.51866-27.55777-5.36569l1.5464-5.56743c11.19148,3.10887,23.66737,6.295,30.057,4.75077,7.9172-1.9134,13.17718-5.77294,15.63373-11.4713,6.13915-14.24-6.03492-35.8138-6.1586-36.03l5.013-2.87333c.56406.983,13.731,24.27651,6.45773,41.17682-3.21257,7.46474-9.803,12.44892-19.58837,14.81465A23.16527,23.16527,0,0,1,346.04334,279.48973Z"/><path fill="#f9977a" d="M364.30845,263.40307l9.343,19.35692a31.17951,31.17951,0,0,0,8.54278,10.75727c8.551,6.874,25.0717,19.27509,36.29669,22.16327l5.85208-6.57467-29.57236-24.36065a17.00282,17.00282,0,0,1-4.92005-6.6822l-8.9224-21.79262Z"/><path fill="#f9977a" d="M417.90789,307.97149s3.5218-.88068,10.60465,2.92828,12.25812,7.56731,6.795,6.10167l-4.1451-1.18641s3.92222,5.17616,6.52534,8.05424a4.86052,4.86052,0,0,1,.68379,5.6929c-.98178,1.65649-2.466,2.04778-6.08962-.67551-5.41962-4.07307-7.69416-6.29375-8.74258-7.69374-.36322-.485-5.04842-5.51239-5.04842-5.51239Z"/><path fill="#dd765e" d="M428.54774 312.88083a4.546 4.546 0 01.83265.567 6.57713 6.57713 0 01.71618.68285 6.25542 6.25542 0 01.606.78476 3.98032 3.98032 0 01.45984.8996 6.42392 6.42392 0 01-.78418-.62233 9.03073 9.03073 0 01-.69312-.69066 8.51076 8.51076 0 01-.61474-.764A5.3968 5.3968 0 01428.54774 312.88083zM431.94606 320.61973c1.22436 1.06535 2.36 2.19444 3.519 3.2989 1.15174 1.11533 2.293 2.216 3.53272 3.25856a10.69294 10.69294 0 01-2.07471-1.2739 19.606 19.606 0 01-1.8429-1.58583c-.579-.56593-1.14038-1.1486-1.65991-1.76895A19.05081 19.05081 0 01431.94606 320.61973zM430.59022 322.58353c1.24793 1.261 2.43384 2.55029 3.68482 3.77033.61475.62079 1.26135 1.20385 1.92151 1.768a9.31179 9.31179 0 002.17492 1.44029 6.14383 6.14383 0 01-2.43139-1.09944 14.63169 14.63169 0 01-2.05371-1.71366 21.5515 21.5515 0 01-1.77637-1.98372A18.638 18.638 0 01430.59022 322.58353zM429.76466 324.71717c1.0636 1.039 2.06592 2.09927 3.10388 3.12719.51172.52084 1.04432 1.01685 1.56775 1.527.53211.50107 1.08423.977 1.64051 1.47407a12.67915 12.67915 0 01-3.59986-2.60881 18.15123 18.15123 0 01-1.47253-1.6703A13.54222 13.54222 0 01429.76466 324.71717z"/><path fill="#ffba55" d="M364.80881,270.01371l18.88668-9.85695s-5.81222-25.30027-18.93792-21.0531S364.80881,270.01371,364.80881,270.01371Z"/><path fill="#e6952a" d="M364.80885,270.01371l9.4325-5.05858,9.37073-4.9579-.092.19974a49.06026,49.06026,0,0,0-6.38159-15.00992,16.10694,16.10694,0,0,0-5.8501-5.466,8.32913,8.32913,0,0,0-3.86926-.83272,9.7121,9.7121,0,0,0-3.85827.9677,6.9996,6.9996,0,0,0-2.90552,2.66684,10.35294,10.35294,0,0,0-1.319,3.78486,24.49214,24.49214,0,0,0,.3324,8.12622A70.38815,70.38815,0,0,0,364.80885,270.01371Zm0,0a64.70346,64.70346,0,0,1-5.45459-15.52048,24.8262,24.8262,0,0,1-.4032-8.24614,10.75074,10.75074,0,0,1,1.3418-3.94633,7.44537,7.44537,0,0,1,3.05786-2.85407,10.17942,10.17942,0,0,1,4.05335-1.05324,8.84518,8.84518,0,0,1,4.111.84841,15.97194,15.97194,0,0,1,6.0354,5.66353,39.89844,39.89844,0,0,1,3.79517,7.34718,58.40983,58.40983,0,0,1,2.52526,7.86378l.033.13562-.12512.06441-9.51575,4.899Z"/><circle cx="467.948" cy="418.79" r="3.099" fill="#212121"/><path fill="#212121" d="M367.48207,440.59105a14.77417,14.77417,0,1,1,14.77344-14.77392A14.7901,14.7901,0,0,1,367.48207,440.59105Zm0-28.99853a14.22437,14.22437,0,1,0,14.22461,14.22461A14.24037,14.24037,0,0,0,367.48207,411.59252Z"/><path fill="#212121" d="M367.43324,440.66234c-.14746,0-.2959-.00195-.44336-.00683a.27472.27472,0,0,1,.00782-.54932l.00781.00049c.41211.01074.81445.00684,1.21484-.01611a.28972.28972,0,0,1,.29.25879.27508.27508,0,0,1-.25879.29C367.98109,440.65453,367.70766,440.66234,367.43324,440.66234Zm-1.66992-.10742a.26724.26724,0,0,1-.04394-.0039l-1.22266-.19825a.27465.27465,0,0,1-.22754-.31494.2789.2789,0,0,1,.31543-.227l1.22266.19824a.2747.2747,0,0,1-.04395.5459Zm3.70508-.03515a.27474.27474,0,0,1-.03809-.54688c.39942-.05664.80078-.13086,1.19434-.22168a.27456.27456,0,1,1,.12305.53516c-.40821.09424-.8252.17187-1.24122.23047A.25044.25044,0,0,1,369.4684,440.51977Zm-6.15039-.36133a.26747.26747,0,0,1-.04395-.00391l-1.22363-.19824a.27466.27466,0,0,1-.22754-.31494.27777.27777,0,0,1,.31543-.227l1.22363.19824a.2747.2747,0,0,1-.04394.5459Zm8.56054-.19434a.27459.27459,0,0,1-.084-.53613c.38477-.12451.76758-.2666,1.13867-.42188a.27487.27487,0,0,1,.21289.50684c-.38574.16162-.7832.30859-1.18359.4375A.26077.26077,0,0,1,371.87855,439.9641Zm-11.00683-.20264a.26746.26746,0,0,1-.04395-.0039l-1.22265-.19824a.27454.27454,0,1,1,.08789-.542l1.22265.19825a.27469.27469,0,0,1-.04394.54589Zm-2.44629-.39648a.26638.26638,0,0,1-.04395-.00391l-1.22265-.19824a.27465.27465,0,0,1-.22754-.31494.28259.28259,0,0,1,.31543-.22705l1.22266.19824a.2747.2747,0,0,1-.04395.5459Zm15.73633-.35742a.27493.27493,0,0,1-.127-.51856c.35938-.1875.71387-.39209,1.05274-.60693a.27484.27484,0,1,1,.29492.46387c-.35254.22314-.7207.43506-1.09375.63037A.27417.27417,0,0,1,374.16176,439.00756Zm-18.18262-.03906a.26725.26725,0,0,1-.04394-.00391l-1.22266-.19824a.27466.27466,0,0,1-.22754-.31494.28031.28031,0,0,1,.31543-.22705l1.22266.19824a.2747.2747,0,0,1-.044.5459Zm-2.44531-.397a.26746.26746,0,0,1-.04395-.0039l-1.22363-.19825a.27465.27465,0,0,1-.22754-.31494.27757.27757,0,0,1,.31543-.22705l1.22363.19824a.2747.2747,0,0,1-.04394.5459Zm-2.44629-.39648a.26747.26747,0,0,1-.04395-.00391l-1.22265-.19824a.27465.27465,0,0,1-.22754-.31494.27928.27928,0,0,1,.31543-.22705l1.22265.19824a.2747.2747,0,0,1-.04394.5459Zm-2.44629-.39649a.26746.26746,0,0,1-.04395-.0039l-1.22265-.19824a.27454.27454,0,1,1,.08789-.542l1.22266.19825a.27469.27469,0,0,1-.04395.54589Zm27.61328-.0957a.27526.27526,0,0,1-.166-.49414c.32421-.24463.63964-.50439.93945-.773a.27489.27489,0,1,1,.36719.40918c-.31153.27881-.63965.54834-.97461.80225A.27507.27507,0,0,1,376.25453,437.68285Zm-30.05957-.30127a.26724.26724,0,0,1-.04394-.0039l-1.22266-.19825a.27454.27454,0,1,1,.08789-.542l1.22266.19824a.2747.2747,0,0,1-.04395.5459Zm-2.44531-.39648a.26747.26747,0,0,1-.04395-.00391l-1.22363-.19824a.27466.27466,0,0,1-.22754-.31494.28243.28243,0,0,1,.31543-.22705l1.22363.19824a.2747.2747,0,0,1-.04394.5459Zm-2.44629-.39649a.26746.26746,0,0,1-.04395-.0039l-1.22265-.19873a.27517.27517,0,0,1-.22754-.31494.27945.27945,0,0,1,.31543-.22706l1.22265.19873a.2747.2747,0,0,1-.04394.5459Zm-2.44629-.397a.26617.26617,0,0,1-.04394-.00391l-1.22266-.19824a.27465.27465,0,0,1-.22754-.31494.27777.27777,0,0,1,.31543-.22705l1.22266.19824a.2747.2747,0,0,1-.04395.5459Zm39.24121-.15967a.27466.27466,0,0,1-.19922-.46338c.2793-.29638.54785-.605.79785-.91748a.27483.27483,0,0,1,.42969.34278c-.25976.3247-.53808.645-.8291.95166A.27058.27058,0,0,1,378.09828,436.032Zm-41.6875-.23681a.26725.26725,0,0,1-.04394-.00391l-1.22266-.19824a.27466.27466,0,0,1-.22754-.31494.27987.27987,0,0,1,.31543-.22705l1.22266.19824a.2747.2747,0,0,1-.04395.5459Zm-2.44531-.39649a.26746.26746,0,0,1-.04395-.0039l-1.22363-.19873a.27467.27467,0,0,1-.22754-.315.2782.2782,0,0,1,.31543-.227l1.22363.19873a.2747.2747,0,0,1-.04394.5459Zm-2.44629-.397a.26747.26747,0,0,1-.04395-.00391l-1.22265-.19824a.27466.27466,0,0,1-.22754-.31494.28086.28086,0,0,1,.31543-.227l1.22266.19824a.2747.2747,0,0,1-.04395.5459Zm-2.44629-.39649a.26724.26724,0,0,1-.04394-.0039l-1.22266-.19824a.27467.27467,0,0,1-.22754-.315.27772.27772,0,0,1,.31543-.22705l1.22266.19825a.27469.27469,0,0,1-.044.54589Zm-2.44629-.397a.26724.26724,0,0,1-.04394-.0039l-1.22266-.19825a.27466.27466,0,0,1-.22754-.31494.27984.27984,0,0,1,.31543-.22705l1.22266.19824a.2747.2747,0,0,1-.04395.5459Zm53.01856-.10888a.27506.27506,0,0,1-.22852-.42774c.22656-.33838.44043-.687.63379-1.03711a.2745.2745,0,1,1,.48047.26563c-.20117.36377-.42188.72607-.65723,1.07715A.27653.27653,0,0,1,379.64516,434.09936Zm-55.46387-.2876a.26747.26747,0,0,1-.04395-.00391l-1.22363-.19824a.27466.27466,0,0,1-.22754-.31494.27852.27852,0,0,1,.31543-.22705l1.22363.19824a.2747.2747,0,0,1-.04394.5459Zm-2.44629-.39649a.26746.26746,0,0,1-.04395-.0039l-1.22265-.19825a.27454.27454,0,1,1,.08789-.542l1.22266.19824a.2747.2747,0,0,1-.04395.5459Zm-2.44629-.397a.26617.26617,0,0,1-.04394-.00391l-1.22266-.19824a.27466.27466,0,0,1-.22754-.31494.28339.28339,0,0,1,.31543-.22705l1.22266.19824a.2747.2747,0,0,1-.04395.5459Zm-2.44629-.39648a.26735.26735,0,0,1-.04394-.00391l-1.22266-.19824a.27466.27466,0,0,1-.22754-.31494.28163.28163,0,0,1,.31543-.22705l1.22266.19824a.2747.2747,0,0,1-.04395.5459Zm-2.44531-.39649a.26746.26746,0,0,1-.04395-.0039l-1.22363-.19825a.27466.27466,0,0,1-.22754-.31494.27848.27848,0,0,1,.31543-.227l1.22363.19824a.2747.2747,0,0,1-.04394.5459Zm66.44434-.293a.27541.27541,0,0,1-.251-.38672c.16308-.36718.3125-.74755.44238-1.12988a.27439.27439,0,1,1,.51953.17676c-.13476.398-.29.79394-.46,1.17627A.27475.27475,0,0,1,380.84145,431.93236Zm-68.89063-.104a.26725.26725,0,0,1-.04394-.00391l-1.22266-.19824a.27465.27465,0,0,1-.22754-.31494.28043.28043,0,0,1,.31543-.227l1.22266.19824a.2747.2747,0,0,1-.04395.5459Zm-2.44629-.39649a.26724.26724,0,0,1-.04394-.0039l-1.22266-.19824a.27466.27466,0,0,1-.22754-.31494.27837.27837,0,0,1,.31543-.22706l1.22266.19825a.27469.27469,0,0,1-.04395.54589Zm-2.44629-.39648a.26626.26626,0,0,1-.04394-.00391l-1.22266-.19873a.27454.27454,0,1,1,.08789-.542l1.22266.19873a.2747.2747,0,0,1-.04395.5459Zm-2.44531-.397a.26747.26747,0,0,1-.04395-.00391l-1.22363-.19824a.27466.27466,0,0,1-.22754-.31494.28024.28024,0,0,1,.31543-.22705l1.22364.19824a.2747.2747,0,0,1-.04395.5459Zm-2.44629-.39649a.26724.26724,0,0,1-.04394-.0039l-1.22364-.19824a.27467.27467,0,0,1-.22754-.315.28149.28149,0,0,1,.31543-.227l1.22364.19825a.27469.27469,0,0,1-.044.54589Zm-2.44629-.39648a.26725.26725,0,0,1-.04394-.00391l-1.22266-.19873a.27491.27491,0,0,1-.22754-.31494.27853.27853,0,0,1,.31543-.22705l1.22266.19873a.2747.2747,0,0,1-.04395.5459Zm81.916-.25586a.2626.2626,0,0,1-.06348-.00781.27514.27514,0,0,1-.2041-.33106c.09375-.39013.16992-.791.22754-1.1914a.26633.26633,0,0,1,.31055-.23291.27419.27419,0,0,1,.23242.311c-.05957.41651-.13867.83447-.23535,1.24121A.27595.27595,0,0,1,381.63637,429.58959Zm-84.36231-.14111a.26735.26735,0,0,1-.04394-.00391l-1.22266-.19824a.27454.27454,0,1,1,.08789-.542l1.22266.19824a.2747.2747,0,0,1-.04395.5459Zm-2.44531-.39649a.26746.26746,0,0,1-.04395-.0039l-1.22363-.19825a.27466.27466,0,0,1-.22754-.31494.279.279,0,0,1,.31543-.22705l1.22364.19824a.2747.2747,0,0,1-.04395.5459Zm-2.44629-.39648a.26725.26725,0,0,1-.04394-.00391l-1.22364-.19873a.27454.27454,0,1,1,.08789-.542l1.22364.19873a.2747.2747,0,0,1-.04395.5459Zm-2.44629-.397a.26735.26735,0,0,1-.04394-.00391l-1.22266-.19824a.27466.27466,0,0,1-.22754-.31494.27955.27955,0,0,1,.31543-.22706l1.22266.19825a.2747.2747,0,0,1-.04395.5459Zm-2.44629-.39649a.26626.26626,0,0,1-.04394-.00391l-1.22266-.19824a.27466.27466,0,0,1-.22754-.31494.28021.28021,0,0,1,.31543-.22705l1.22266.19824a.2747.2747,0,0,1-.04395.5459Zm-2.44531-.397a.26725.26725,0,0,1-.04394-.00391l-1.22364-.19824a.27466.27466,0,0,1-.22754-.31494.27928.27928,0,0,1,.31543-.22705l1.22364.19824a.2747.2747,0,0,1-.04395.5459Zm96.93457-.32422-.01172-.00049a.27457.27457,0,0,1-.26269-.28613c.00781-.17676.01172-.354.01269-.53174,0-.1626-.00293-.32764-.01074-.49268l-.00879-.18945a.275.275,0,0,1,.26172-.28711.29161.29161,0,0,1,.28711.26172l.00879.18945c.00781.17383.01074.34668.01074.51953-.001.186-.00488.37012-.0127.55372A.27435.27435,0,0,1,381.97914,427.14086Zm-99.38086-.07227a.26724.26724,0,0,1-.04394-.0039l-1.22364-.19824a.27454.27454,0,1,1,.08789-.542l1.22364.19825a.27469.27469,0,0,1-.04395.54589Zm-2.44629-.39648a.26735.26735,0,0,1-.04394-.00391l-.82715-.13427c-.10156.00293-.23731-.001-.37207-.00782a.27462.27462,0,0,1-.25977-.28857.29729.29729,0,0,1,.28907-.26025c.127.00683.25683.00976.38867.01074l.86914.13818a.2747.2747,0,0,1-.04395.5459Zm-2.45215-.31738a.27275.27275,0,0,1-.0625-.00733,6.89231,6.89231,0,0,1-1.22168-.40918.27456.27456,0,0,1,.22266-.502,6.38435,6.38435,0,0,0,1.124.376.27485.27485,0,0,1-.0625.54248Zm-2.249-1.00049a.27467.27467,0,0,1-.15723-.04932,6.87978,6.87978,0,0,1-.98242-.833.27485.27485,0,0,1,.39258-.38476,6.25514,6.25514,0,0,0,.9043.7666.275.275,0,0,1-.15723.50049Zm106.4209-.68555a.27405.27405,0,0,1-.27246-.24316q-.07324-.61743-.18262-1.2041a.27436.27436,0,1,1,.53906-.10254q.11572.60571.18848,1.24316a.2745.2745,0,0,1-.24023.30469C381.8932,424.66771,381.88246,424.66869,381.87172,424.66869Zm-108.14551-1.07422a.27382.27382,0,0,1-.22754-.12109,7.67936,7.67936,0,0,1-.625-1.12061.27467.27467,0,0,1,.5-.22754,7.25884,7.25884,0,0,0,.58008,1.04053.27434.27434,0,0,1-.07422.38135A.2699.2699,0,0,1,273.72621,423.59447Zm107.68457-1.356a.27594.27594,0,0,1-.26562-.20362c-.1045-.38916-.22657-.77929-.36328-1.15918a.27552.27552,0,0,1,.166-.35156.27869.27869,0,0,1,.35156.166c.14063.394.26758.79834.377,1.20214a.27619.27619,0,0,1-.26563.3462Zm-108.707-.88819a.27436.27436,0,0,1-.26465-.20312,8.89856,8.89856,0,0,1-.24512-1.25342.27448.27448,0,1,1,.54493-.06641,8.52732,8.52732,0,0,0,.22949,1.17627.2739.2739,0,0,1-.19238.33692A.28922.28922,0,0,1,272.70375,421.35033Zm107.86816-1.4375a.2736.2736,0,0,1-.249-.15967c-.17285-.37255-.36035-.73486-.55859-1.07666a.2752.2752,0,0,1,.47656-.27539c.20605.35645.40137.73389.58008,1.12159a.2746.2746,0,0,1-.249.39013Zm-108.168-1.01416h-.00489a.27408.27408,0,0,1-.26953-.2793,8.91475,8.91475,0,0,1,.11133-1.27148.28145.28145,0,0,1,.31543-.22754.27516.27516,0,0,1,.22754.31445,8.4007,8.4007,0,0,0-.10547,1.19336A.27447.27447,0,0,1,272.404,418.89867Zm106.93164-1.12695a.2752.2752,0,0,1-.22461-.11621c-.23145-.32715-.48243-.64844-.7461-.95459a.27456.27456,0,1,1,.416-.3584c.27539.31885.53711.65381.7793.9956a.275.275,0,0,1-.22461.4336Zm-106.53711-1.30957a.27568.27568,0,0,1-.26172-.3584,7.99309,7.99309,0,0,1,.48535-1.186.27493.27493,0,0,1,.49023.249,7.37572,7.37572,0,0,0-.45214,1.104A.27513.27513,0,0,1,272.79848,416.46215Zm104.92578-.56494a.27352.27352,0,0,1-.19043-.07715c-.28906-.27832-.5957-.54785-.91211-.80078a.27475.27475,0,1,1,.34375-.42871c.3291.26318.64844.54394.94922.834a.27466.27466,0,0,1-.19043.47266Zm-1.93067-1.54785a.27337.27337,0,0,1-.15234-.04639c-.332-.22119-.68066-.43262-1.03906-.6294a.27493.27493,0,1,1,.26562-.48144c.3711.2041.7334.42383,1.07813.65381a.27485.27485,0,0,1-.15235.50342Zm-101.875-.084a.27468.27468,0,0,1-.21972-.439,7.03766,7.03766,0,0,1,.85937-.958.2747.2747,0,0,1,.373.40332,6.565,6.565,0,0,0-.793.88281A.27288.27288,0,0,1,273.91859,414.26537Zm99.71094-1.11133a.27541.27541,0,0,1-.11328-.02441c-.36719-.16553-.74707-.31934-1.12793-.45752a.27479.27479,0,1,1,.1875-.5166c.39356.14258.78613.30176,1.167.47314a.27508.27508,0,0,1-.11328.52539Zm-97.90332-.56054a.27467.27467,0,0,1-.14551-.50782,6.69755,6.69755,0,0,1,1.1543-.57519.27467.27467,0,1,1,.19727.51269,6.17317,6.17317,0,0,0-1.06055.52832A.273.273,0,0,1,275.72621,412.5935Zm95.57617-.28467a.27177.27177,0,0,1-.07519-.01074c-.38867-.10987-.78418-.207-1.1836-.291a.27494.27494,0,0,1,.11329-.53809q.6167.13038,1.2207.30079a.27475.27475,0,0,1-.0752.53906Zm-2.41992-.51172a.27353.27353,0,0,1-.03906-.00293q-.60205-.08643-1.21289-.13574a.27428.27428,0,0,1-.251-.2959.27026.27026,0,0,1,.2959-.252q.62549.05053,1.24609.13964a.27488.27488,0,0,1-.03906.54688Zm-90.85742-.08838a.27472.27472,0,0,1-.04981-.54492,7.50054,7.50054,0,0,1,1.27735-.12061.27492.27492,0,0,1,.00586.54981,6.93636,6.93636,0,0,0-1.1836.11084A.25282.25282,0,0,1,278.025,411.70873Zm88.38965-.11182h-.00586c-.14063-.00293-.28223-.00439-.42285-.00439h-1.23926a.27491.27491,0,0,1,0-.54981H365.986c.14453,0,.29.00147.43457.0044a.27494.27494,0,0,1-.00586.5498Zm-2.90625-.00439h-1.23926a.27491.27491,0,0,1,0-.54981h1.23926a.27491.27491,0,0,1,0,.54981Zm-2.47852,0h-1.23926a.27491.27491,0,0,1,0-.54981h1.23926a.27491.27491,0,0,1,0,.54981Zm-2.47754,0h-1.23925a.27491.27491,0,0,1,0-.54981h1.23925a.27491.27491,0,0,1,0,.54981Zm-2.47851,0h-1.23926a.27491.27491,0,0,1,0-.54981h1.23926a.27491.27491,0,0,1,0,.54981Zm-2.47754,0h-1.23926a.27491.27491,0,0,1,0-.54981h1.23926a.27491.27491,0,0,1,0,.54981Zm-2.47852,0h-1.23926a.27491.27491,0,0,1,0-.54981h1.23926a.27491.27491,0,0,1,0,.54981Zm-2.47754,0H347.401a.27491.27491,0,0,1,0-.54981h1.23925a.27491.27491,0,0,1,0,.54981Zm-2.47851,0H344.9225a.27491.27491,0,0,1,0-.54981h1.23926a.27491.27491,0,0,1,0,.54981Zm-2.47754,0H342.445a.27491.27491,0,0,1,0-.54981h1.23926a.27491.27491,0,0,1,0,.54981Zm-2.47852,0h-1.23828a.27491.27491,0,0,1,0-.54981h1.23828a.27491.27491,0,0,1,0,.54981Zm-2.47754,0h-1.23925a.27491.27491,0,0,1,0-.54981h1.23925a.27491.27491,0,0,1,0,.54981Zm-2.47851,0h-1.23828a.27491.27491,0,0,1,0-.54981h1.23828a.27491.27491,0,0,1,0,.54981Zm-2.47754,0h-1.23926a.27491.27491,0,0,1,0-.54981h1.23926a.27491.27491,0,0,1,0,.54981Zm-2.47852,0h-1.23828a.27491.27491,0,0,1,0-.54981h1.23828a.27491.27491,0,0,1,0,.54981Zm-2.47754,0H327.5768a.27491.27491,0,0,1,0-.54981h1.23925a.27491.27491,0,0,1,0,.54981Zm-2.47851,0h-1.23828a.27491.27491,0,0,1,0-.54981h1.23828a.27491.27491,0,0,1,0,.54981Zm-2.47754,0h-1.23926a.27491.27491,0,0,1,0-.54981H323.86a.27491.27491,0,0,1,0,.54981Zm-2.47852,0H320.1432a.27491.27491,0,0,1,0-.54981h1.23828a.27491.27491,0,0,1,0,.54981Zm-2.47753,0h-1.23926a.27491.27491,0,0,1,0-.54981H318.904a.27491.27491,0,0,1,0,.54981Zm-2.47754,0h-1.23926a.27491.27491,0,0,1,0-.54981h1.23926a.27491.27491,0,0,1,0,.54981Zm-2.47852,0h-1.23926a.27491.27491,0,0,1,0-.54981h1.23926a.27491.27491,0,0,1,0,.54981Zm-2.47754,0h-1.23926a.27491.27491,0,0,1,0-.54981h1.23926a.27491.27491,0,0,1,0,.54981Zm-2.47851,0h-1.23926a.27491.27491,0,0,1,0-.54981h1.23926a.27491.27491,0,0,1,0,.54981Zm-2.47754,0H305.275a.27491.27491,0,0,1,0-.54981h1.23926a.27491.27491,0,0,1,0,.54981Zm-2.47852,0h-1.23926a.27491.27491,0,0,1,0-.54981h1.23926a.27491.27491,0,0,1,0,.54981Zm-2.47754,0H300.319a.27491.27491,0,0,1,0-.54981h1.23926a.27491.27491,0,0,1,0,.54981Zm-2.47851,0h-1.23926a.27491.27491,0,0,1,0-.54981h1.23926a.27491.27491,0,0,1,0,.54981Zm-2.47754,0h-1.23926a.27491.27491,0,0,1,0-.54981h1.23926a.27491.27491,0,0,1,0,.54981Zm-2.47852,0h-1.23828a.27491.27491,0,0,1,0-.54981h1.23828a.27491.27491,0,0,1,0,.54981Zm-2.47754,0h-1.23925a.27491.27491,0,0,1,0-.54981h1.23925a.27491.27491,0,0,1,0,.54981Zm-2.47851,0h-1.23828a.27491.27491,0,0,1,0-.54981h1.23828a.27491.27491,0,0,1,0,.54981Zm-2.47754,0h-1.23926a.27491.27491,0,0,1,0-.54981h1.23926a.27491.27491,0,0,1,0,.54981Zm-2.47852,0h-1.23828a.27491.27491,0,0,1,0-.54981h1.23828a.27491.27491,0,0,1,0,.54981Zm-2.47754,0h-1.23925a.27491.27491,0,0,1,0-.54981H281.734a.27491.27491,0,0,1,0,.54981Z"/><circle cx="280.821" cy="418.79" r="8.904" fill="#f65b2b"/><circle cx="280.821" cy="418.79" r="3.099" fill="#212121"/><path fill="#212121" d="M492.361,346.72817a60.78682,60.78682,0,0,1,21.35229,6.68888,55.08651,55.08651,0,0,1,17.35181,14.23941c1.2041,1.45485,2.23254,3.039,3.28918,4.5997.95252,1.62715,1.94605,3.23113,2.74024,4.94253.895,1.66128,1.53637,3.43758,2.28051,5.166l.90735,2.673.43824,1.34085.35107,1.36615.70093,2.73028.52282,2.768c.39966,1.83624.54944,3.71126.79371,5.569.20837,1.86266.22912,3.7414.35241,5.60743.0293,1.87135-.0144,3.7435-.03357,5.611a83.47438,83.47438,0,0,0-3.07678-22.07713l-.37915-1.3401-.46521-1.31239-.91931-2.62694c-.74817-1.69664-1.39209-3.44117-2.28674-5.06766-.79419-1.67744-1.78492-3.24542-2.73243-4.83645-1.05053-1.52476-2.07385-3.0699-3.264-4.49039a53.805,53.805,0,0,0-7.74317-7.94021,61.04051,61.04051,0,0,0-9.1925-6.24887,64.30093,64.30093,0,0,0-10.1731-4.54988A59.83819,59.83819,0,0,0,492.361,346.72817Z"/><path fill="#212121" d="M539.48854 361.32548a60.78513 60.78513 0 0112.60437 18.48768 55.086 55.086 0 014.78381 21.93077c.04261 1.888-.13281 3.76859-.27148 5.64821-.26172 1.8672-.47681 3.74169-.91492 5.57682-.32788 1.85832-.92627 3.64953-1.41418 5.467l-.94556 2.65974-.48755 1.32366-.57178 1.28948-1.14294 2.57668-1.30627 2.49588c-.82508 1.68838-1.87012 3.25234-2.83045 4.86132-.99158 1.5905-2.14013 3.07735-3.20056 4.61778-1.13733 1.48634-2.33252 2.928-3.50549 4.38127a83.47922 83.47922 0 0011.27551-19.22832l.53345-1.28653.44873-1.3181.90771-2.63094c.46509-1.795 1.04151-3.563 1.34827-5.39377.417-1.80847.61206-3.653.85522-5.48869.12122-1.84767.27649-3.69446.22351-5.5469a53.80681 53.80681 0 00-1.15136-11.03076 61.04048 61.04048 0 00-3.33728-10.60251 64.29258 64.29258 0 00-5.16-9.87762A59.82943 59.82943 0 00539.48854 361.32548zM406.34975 174.42667a46.8804 46.8804 0 0116.70153 5.14546 42.92582 42.92582 0 0113.58558 11.11675c.94116 1.139 1.74414 2.37947 2.56933 3.60121.7439 1.27365 1.51941 2.52922 2.13916 3.86838.69849 1.30014 1.19849 2.6897 1.77881 4.04194.45239 1.39927 1.00415 2.77013 1.31653 4.20913l.54053 2.13575.40124 2.16442c.307 1.43571.4198 2.90089.60474 4.35257.15442 1.4557.16247 2.92323.25049 4.38038.01562 1.4612-.02845 2.92263-.0553 4.3797a66.26314 66.26314 0 00-2.48206-17.20418l-.29907-1.04283-.366-1.02095-.71862-2.04478c-.58423-1.32042-1.087-2.67821-1.785-3.94356-.61975-1.30519-1.39246-2.52476-2.13122-3.7623-.8191-1.18583-1.61707-2.38725-2.54432-3.49191a41.87416 41.87416 0 00-6.01977-6.18723 48.2884 48.2884 0 00-7.14966-4.87918 50.18586 50.18586 0 00-7.91516-3.57353A47.23343 47.23343 0 00406.34975 174.42667z"/><path fill="#212121" d="M443.124 185.81714a46.88228 46.88228 0 019.91272 14.393 42.9266 42.9266 0 013.76526 17.14557c.0321 1.47718-.10706 2.94831-.21717 4.41851-.20617 1.46046-.37622 2.92645-.72046 4.36136-.25817 1.45309-.72741 2.85336-1.11071 4.274-.5127 1.3783-.92993 2.79592-1.577 4.11861l-.90027 2.01077-1.02734 1.94687c-.64929 1.31676-1.46936 2.53618-2.22437 3.78977-.78149 1.23786-1.68518 2.39419-2.51965 3.592-.8938 1.15608-1.83447 2.2753-2.759 3.40181a66.26662 66.26662 0 008.72046-15.03658l.412-1.00357.346-1.02792.7041-2.04979c.36035-1.39822.80786-2.77525 1.0448-4.20079.32312-1.40825.473-2.84424.66077-4.27322.09277-1.43825.21167-2.87563.16919-4.3172a41.87536 41.87536 0 00-.88623-8.58683 48.28555 48.28555 0 00-2.58387-8.26124 50.18653 50.18653 0 00-3.994-7.71153A47.22358 47.22358 0 00443.124 185.81714zM221.00941 395.115H171.15492a.5.5 0 010-1h49.85449a.5.5 0 010 1zM192.07094 408.52709H142.21645a.5.5 0 110-1h49.85449a.5.5 0 010 1zM204.737 421.93871H154.88246a.5.5 0 010-1H204.737a.5.5 0 010 1zM298.95473 263.68676h-49.8545a.5.5 0 010-1h49.8545a.5.5 0 010 1zM270.01625 277.09887H220.16176a.5.5 0 010-1h49.85449a.5.5 0 010 1zM282.68227 290.51049h-49.8545a.5.5 0 010-1h49.8545a.5.5 0 010 1z"/><path fill="#4f66d0" d="M343.51015 349.8867c.50915 1.41553 1.04065 2.81631 1.62463 4.19218a37.66926 37.66926 0 001.93774 4.02522 15.76278 15.76278 0 002.56763 3.59088 4.81337 4.81337 0 003.91174 1.67623 3.81774 3.81774 0 01-2.25878-.13586 6.38637 6.38637 0 01-1.94312-1.233 14.71229 14.71229 0 01-2.75684-3.63092 31.46821 31.46821 0 01-3.083-8.48468zM348.70656 352.28266a24.23047 24.23047 0 001.81714 2.97461 20.6298 20.6298 0 002.23889 2.6235 15.0293 15.0293 0 002.6936 2.1277l.74158.44348.78442.36514c.5094.28857 1.08094.40959 1.62195.65008a10.3271 10.3271 0 01-3.35669-1.09124 11.77952 11.77952 0 01-2.86951-2.10325 14.73316 14.73316 0 01-2.20483-2.78284A13.49932 13.49932 0 01348.70656 352.28266zM352.74257 303.90771a7.13768 7.13768 0 012.506-1.04127 11.75945 11.75945 0 012.71558-.28522 14.13508 14.13508 0 012.70678.29179c.44373.09184.88025.21534 1.31775.3236.428.14992.85706.28875 1.27527.45706-.89648-.12048-1.774-.27109-2.65808-.36307-.88428-.07847-1.76416-.16655-2.64612-.16028a19.4204 19.4204 0 00-2.63513.14989A11.595 11.595 0 00352.74257 303.90771zM321.92311 296.55819q.53925 2.31691 1.26331 4.56709a36.52168 36.52168 0 001.67688 4.40338 18.08152 18.08152 0 005.55066 7.45856 11.90948 11.90948 0 01-3.60364-3.11257 20.91914 20.91914 0 01-2.44727-4.1203 30.45009 30.45009 0 01-1.58044-4.51093A28.3343 28.3343 0 01321.92311 296.55819zM322.18776 307.51929a49.16438 49.16438 0 003.68152 5.699 32.08828 32.08828 0 002.17334 2.58215 27.60229 27.60229 0 002.49487 2.302 16.20452 16.20452 0 01-5.10571-4.55232 23.05079 23.05079 0 01-1.86-2.89325A18.97357 18.97357 0 01322.18776 307.51929z"/><path fill="#4f66d0" d="M359.09 300.17576a15.83332 15.83332 0 011.51392.98764c.49182.34449.95617.72213 1.42028 1.0999.45582.38782.91089.77649 1.33875 1.19782a15.69525 15.69525 0 011.2439 1.31158 15.70979 15.70979 0 01-1.51453-.98688c-.49158-.34483-.95593-.72231-1.41968-1.10066-.45532-.38838-.91052-.77688-1.33813-1.19855A15.83755 15.83755 0 01359.09 300.17576zM334.39162 325.75227c2.64636 1.27027 5.32055 2.4756 7.99914 3.66433 2.682 1.1813 5.37573 2.33556 8.11316 3.37478 2.718 1.08816 5.48071 2.06362 8.28455 2.894 1.3938.44662 2.81726.78586 4.24218 1.1115l2.15369.42509 2.1842.25265a34.99542 34.99542 0 01-8.69506-1.38255 81.70573 81.70573 0 01-8.36878-2.78927c-2.73193-1.08638-5.43786-2.23693-8.08887-3.50355C339.56129 328.541 336.94545 327.2014 334.39162 325.75227z"/><path fill="#8b9d36" d="M149.54652,474.2307c-11.126,0-34.78027-17.18408-37.60449-19.26465a1.82838,1.82838,0,0,1,2.16992-2.94335c10.82813,7.98,30.31446,20.04345,36.54981,18.43408a1.82807,1.82807,0,0,1,.91406,3.54A8.14155,8.14155,0,0,1,149.54652,474.2307Z"/><path fill="#8b9d36" d="M149.37074,475.59789a1.82821,1.82821,0,0,1-1.82129-1.69531l-4.41308-60.502a1.82807,1.82807,0,1,1,3.64648-.26562l4.41309,60.502a1.82852,1.82852,0,0,1-1.69043,1.95606C149.46059,475.59643,149.41566,475.59789,149.37074,475.59789Z"/><path fill="#8b9d36" d="M150.48988,476.80932a1.82885,1.82885,0,0,1-1.65722-2.59717c.48535-1.04492,12.19629-25.645,39.874-30.60742a1.82795,1.82795,0,0,1,.64453,3.59863c-25.76562,4.61963-37.0918,28.31055-37.20312,28.54932A1.829,1.829,0,0,1,150.48988,476.80932Z"/><path fill="#5e7c24" d="M182.10363 448.18526c.68516-.67926 1.79963.05368 4.64382.376 2.25623.25546 2.396-.11057 7.357-.27207 3.45764-.11249 5.18674-.1689 6.23785.11492.8285.22386 5.51154 1.48834 6.275 5.084.79992 3.76671-3.37128 6.93938-3.57372 7.08934-4.00417 2.96044-9.09421 1.41455-10.74558.91266a15.6745 15.6745 0 01-9.24932-7.92432C182.78479 453.04629 180.9137 449.36432 182.10363 448.18526zM146.91644 425.34019c-1.72839-.87029-.71694-6.39961-.16391-9.42119.16747-.91468.50862-2.56468 3.11121-9.42163 2.86555-7.54968 3.51942-8.363 4.58507-8.75983 2.49376-.929 6.16421.82276 7.5328 3.47084 1.89453 3.66589-1.00967 8.30025-4.09378 13.22293C154.92588 419.15849 149.16456 426.47188 146.91644 425.34019z"/><path fill="#c4ce6e" d="M146.26124,439.88581c1.27131-2.06879-1.06786-6.11445-3.43858-8.26439-1.99-1.80469-4.02626-2.29521-7.5328-3.14039-3.93831-.9492-8.2733-1.99391-9.49752-.16545-1.16737,1.74327,1.11628,5.16793,1.63777,5.95034a14.47587,14.47587,0,0,0,6.7137,5.124C137.6428,440.83815,144.6208,442.555,146.26124,439.88581Z"/><path fill="#5e7c24" d="M146.42516 455.91868c.04664-1.646-2.333-1.98719-7.205-5.95034-3.86768-3.14623-3.97784-4.24025-6.22285-4.95854-3.4368-1.09941-7.92326-.05246-8.67885 2.14859-.18479.53895-.15858 1.18236 2.78382 5.95034 2.289 3.70893 3.45635 5.57774 4.58507 6.28079 3.21515 2.00333 6.9087 1.129 8.18757.82635C141.93026 459.72939 146.36208 458.14933 146.42516 455.91868zM148.21585 436.8949c-1.60491-1.81722.01-6.20871 1.979-8.73823 1.65283-2.12331 3.57512-2.96006 6.88537-4.40147 3.71785-1.61884 7.81019-3.40064 9.32776-1.812 1.447 1.5146-.219 5.28472-.59935 6.146a14.54356 14.54356 0 01-5.74044 6.21328C156.86813 436.33667 150.2867 439.23945 148.21585 436.8949zM149.40337 453.97561c-.32644-1.61334 1.95955-2.36262 6.08359-7.11261 3.27388-3.77086 3.196-4.8677 5.2851-5.96508 3.19823-1.67973 7.79623-1.42735 8.91564.60971.27388.49882.35771 1.1372-1.72832 6.345-1.62282 4.05107-2.45432 6.09471-3.44641 6.98325-2.82583 2.5317-6.61333 2.3117-7.9247 2.2356C154.48067 456.9491 149.84564 456.16206 149.40337 453.97561zM123.17242 462.52992c-.22965-1.79349-3.18316-2.7835-6.71369-3.96675-3.18983-1.06892-5.72224-1.91813-8.67886-.9918-.52282.16366-5.17364 1.62042-5.56765 5.124-.35358 3.14264 2.99927 5.437 3.27512 5.61989 2.695 1.78856 5.70891 1.20881 7.69627.82635C117.78823 468.25562 123.51046 465.16813 123.17242 462.52992z"/><path fill="#8b9d36" d="M116.78611 453.93508c-1.38725-2.01722-.90129-3.44708-1.47387-6.94214-.91018-5.55622-2.84646-6.26778-2.12863-9.09073.565-2.22168 2.47955-4.59312 4.58507-4.62809 2.94907-.04932 4.84627 4.50882 5.23983 5.45444 1.43123 3.43811.90351 6.43548 0 11.57023-.5899 3.352-1.03988 5.75171-2.456 6.11579C119.18347 456.76655 117.55369 455.05108 116.78611 453.93508zM167.29849 456.74217c.74022-1.08446 3.03-.6712 5.80527-.17049 3.46731.62577 6.06631 1.09458 8.09245 3.34257.31183.3457 3.57236 4.05979 2.03027 7.03665-1.205 2.32592-4.62006 2.80826-6.87281 2.28143-2.44445-.57163-3.73-2.38019-6.10606-5.7229C168.3756 460.876 166.387 458.07761 167.29849 456.74217z"/><path fill="#5e7c24" d="M173.6702,448.68494c-.57249-.30024-.38527-1.15885-.53493-3.7331-.33483-5.7512-1.56762-6.59251-.73066-8.74372.92609-2.37992,3.64317-4.45519,5.42833-3.86169,1.94611.64684,2.24767,4.286,2.36959,5.75868a10.723,10.723,0,0,1-.68,5.12076C178.16786,446.5428,174.91149,449.33646,173.6702,448.68494Z"/><path fill="#8b9d36" d="M142.98613,420.21664c-.95548,1.355-6.38054-.24974-9.98881-3.47129-.92128-.82231-4.99862-4.46309-3.92987-7.93393.4442-1.442,1.80213-2.93863,3.27511-2.97495,1.52984-.03766,2.52441,1.51639,5.07636,5.289C142.6663,418.88408,143.405,419.62255,142.98613,420.21664Z"/><path fill="#c4ce6e" d="M159.96176,458.21685c-2.84774.01863-4.83563-6.51231-5.31212-8.07756a21.32383,21.32383,0,0,1-.11554-12.34258c.78743-2.51039,2.22307-7.08752,5.21015-7.51033,2.862-.405,5.62719,3.21862,6.78136,5.7308,2.27764,4.9564.34894,10.07586-1.26888,14.3695C163.99655,453.73192,162.31235,458.20139,159.96176,458.21685Z"/><rect width="500" height="2" x="99.31" y="475.23" fill="#935b50"/></svg>