<?xml version="1.0" standalone="no"?><!DOCTYPE svg PUBLIC "-//W3C//DTD SVG 1.1//EN" "http://www.w3.org/Graphics/SVG/1.1/DTD/svg11.dtd"><svg t="1656423104970" class="icon" viewBox="0 0 1024 1024" version="1.1" xmlns="http://www.w3.org/2000/svg" p-id="4890" xmlns:xlink="http://www.w3.org/1999/xlink" width="128" height="128"><defs><style type="text/css"></style></defs><path d="M603.39172 351.853023l22.100547 11.618185c2.577597 1.355788 5.591126-0.83387 5.099203-3.705421l-4.22134-24.610155 17.879206-17.429277c2.085674-2.033682 0.933854-5.575129-1.947696-5.995063l-24.708139-3.591439-11.050273-22.390501c-1.289798-2.611592-5.013217-2.611592-6.303016 0l-11.050273 22.390501-24.710139 3.591439c-2.88155 0.417935-4.03337 3.961381-1.947696 5.995063l17.879207 17.429277-4.221341 24.610155c-0.491923 2.871551 2.521606 5.059209 5.099204 3.705421l22.102546-11.618185zM42.593345 351.853023l22.100547 11.618185c2.577597 1.355788 5.591126-0.83387 5.099203-3.705421l-4.221341-24.610155 17.879207-17.429277c2.085674-2.033682 0.933854-5.575129-1.947696-5.995063l-24.708139-3.591439-11.050274-22.390501c-1.289798-2.611592-5.013217-2.611592-6.303015 0l-11.050273 22.390501-24.70814 3.591439c-2.88155 0.417935-4.03337 3.961381-1.947695 5.995063l17.879206 17.429277-4.22134 24.610155c-0.491923 2.871551 2.521606 5.059209 5.099203 3.705421l22.100547-11.618185zM322.991533 71.452835l22.100546 11.618185c2.577597 1.355788 5.591126-0.83387 5.099204-3.705421l-4.221341-24.610155 17.879207-17.429276c2.085674-2.033682 0.933854-5.575129-1.947696-5.995063l-24.710139-3.591439-11.050274-22.390502c-1.289798-2.611592-5.013217-2.611592-6.303015 0l-11.050273 22.390502-24.708139 3.591439c-2.88155 0.417935-4.03337 3.961381-1.947696 5.995063l17.879206 17.429276-4.22134 24.610155c-0.491923 2.871551 2.521606 5.059209 5.099203 3.705421l22.102547-11.618185z" fill="#FF8354" p-id="4891"></path><path d="M322.991533 726.284518c-11.044274 0-19.996875-8.954601-19.996876-19.996875v-242.202156c0-11.042275 8.952601-19.996875 19.996876-19.996876s19.996875 8.954601 19.996875 19.996876v242.202156c0 11.044274-8.952601 19.996875-19.996875 19.996875zM322.991533 1024c-11.044274 0-19.996875-8.954601-19.996876-19.996875v-193.805718c0-11.042275 8.952601-19.996875 19.996876-19.996876s19.996875 8.954601 19.996875 19.996876v193.805718c0 11.044274-8.952601 19.996875-19.996875 19.996875z" fill="#6770E6" p-id="4892"></path><path d="M322.991533 323.8394m-34.714576 0a34.714576 34.714576 0 1 0 69.429151 0 34.714576 34.714576 0 1 0-69.429151 0Z" fill="#FF8354" p-id="4893"></path><path d="M322.991533 245.063709c-11.044274 0-19.996875-8.954601-19.996876-19.996876v-88.606155c0-11.042275 8.952601-19.996875 19.996876-19.996875s19.996875 8.954601 19.996875 19.996875v88.606155c0 11.042275-8.952601 19.996875-19.996875 19.996876zM139.820153 160.664896a19.936885 19.936885 0 0 1-14.139791-5.857085L95.479081 124.604531c-7.80878-7.80878-7.80878-20.470801 0-28.281581 7.80878-7.80678 20.470801-7.80678 28.281581 0l30.203281 30.20328c7.80878 7.80878 7.80878 20.470801 0 28.281581a19.954882 19.954882 0 0 1-14.14379 5.857085zM253.150445 273.993189a19.940884 19.940884 0 0 1-14.13979-5.857085l-62.654211-62.652211c-7.80878-7.80878-7.81078-20.470801 0-28.281581 7.80878-7.80678 20.470801-7.80678 28.279582 0l62.65421 62.652211c7.80878 7.80878 7.81078 20.470801 0 28.281581a19.940884 19.940884 0 0 1-14.139791 5.857085zM224.220965 343.834276h-88.606155c-11.044274 0-19.996875-8.954601-19.996875-19.996876s8.952601-19.996875 19.996875-19.996875h88.606155c11.044274 0 19.996875 8.954601 19.996876 19.996875s-8.952601 19.996875-19.996876 19.996876zM109.618872 557.208936a19.936885 19.936885 0 0 1-14.139791-5.857085c-7.80878-7.80878-7.80878-20.470801 0-28.281581l30.203281-30.20328c7.80878-7.80678 20.470801-7.80678 28.281581 0 7.80878 7.80878 7.80878 20.470801 0 28.281581L123.758663 551.353851a19.936885 19.936885 0 0 1-14.139791 5.855085zM190.496235 476.331573a19.940884 19.940884 0 0 1-14.139791-5.857085c-7.80878-7.80878-7.81078-20.470801 0-28.281581l62.654211-62.65421c7.80878-7.80678 20.470801-7.80678 28.279581 0 7.80878 7.80878 7.81078 20.470801 0 28.281581l-62.65421 62.65421a19.928886 19.928886 0 0 1-14.139791 5.857085zM536.368192 557.208936a19.936885 19.936885 0 0 1-14.13979-5.857085l-30.203281-30.20328c-7.80878-7.80878-7.81078-20.470801 0-28.281581 7.80878-7.80678 20.472801-7.80678 28.279581 0l30.203281 30.20328c7.80878 7.80878 7.80878 20.470801 0 28.281581a19.932885 19.932885 0 0 1-14.139791 5.857085zM455.48683 476.331573a19.936885 19.936885 0 0 1-14.13979-5.857085l-62.652211-62.65421c-7.80878-7.80878-7.80878-20.470801 0-28.281581 7.80878-7.80678 20.470801-7.804781 28.279581 0l62.652211 62.65421c7.80878 7.80878 7.80878 20.470801 0 28.281581a19.928886 19.928886 0 0 1-14.139791 5.857085zM510.370255 343.834276h-88.606156c-11.044274 0-19.996875-8.954601-19.996875-19.996876s8.952601-19.996875 19.996875-19.996875h88.606156c11.042275 0 19.996875 8.954601 19.996875 19.996875s-8.954601 19.996875-19.996875 19.996876zM506.164912 160.664896a19.936885 19.936885 0 0 1-14.139791-5.857085c-7.80878-7.80878-7.80878-20.470801 0-28.281581l30.203281-30.20328c7.812779-7.80678 20.470801-7.804781 28.281581 0 7.80878 7.80878 7.80878 20.470801 0 28.281581l-30.203281 30.20328a19.948883 19.948883 0 0 1-14.14179 5.857085zM392.83462 273.993189a19.936885 19.936885 0 0 1-14.139791-5.857085c-7.80878-7.80878-7.80878-20.470801 0-28.281581l62.652211-62.652211c7.80878-7.80678 20.470801-7.80678 28.281581 0 7.80878 7.80878 7.80878 20.470801 0 28.281581l-62.652211 62.652211a19.946883 19.946883 0 0 1-14.14179 5.857085z" fill="#6770E6" p-id="4894"></path><path d="M854.134541 686.290767c-11.042275 0-19.996875-8.954601-19.996875-19.996875v-39.477832c0-11.042275 8.954601-19.996875 19.996875-19.996875s19.996875 8.954601 19.996876 19.996875v39.477832c0 11.044274-8.954601 19.996875-19.996876 19.996875zM854.134541 854.858428c-11.042275 0-19.996875-8.954601-19.996875-19.996875v-92.861491c0-11.042275 8.954601-19.996875 19.996875-19.996875s19.996875 8.954601 19.996876 19.996875v92.861491c0 11.044274-8.954601 19.996875-19.996876 19.996875zM854.134541 1024c-11.042275 0-19.996875-8.954601-19.996875-19.996875v-74.154414c0-11.042275 8.954601-19.996875 19.996875-19.996875s19.996875 8.954601 19.996876 19.996875v74.154414c0 11.044274-8.954601 19.996875-19.996876 19.996875zM854.134541 454.988908c-11.042275 0-19.996875-8.954601-19.996875-19.996876v-71.108889c0-11.042275 8.954601-19.996875 19.996875-19.996875s19.996875 8.954601 19.996876 19.996875v71.110889c0 11.042275-8.954601 19.994876-19.996876 19.994876zM798.083299 478.20728a19.936885 19.936885 0 0 1-14.13979-5.857085l-50.284143-50.284143c-7.80878-7.80878-7.80878-20.470801 0-28.281581 7.81078-7.80678 20.468802-7.80678 28.281581 0l50.284143 50.284143c7.80878 7.80878 7.80878 20.470801 0 28.281581a19.948883 19.948883 0 0 1-14.141791 5.857085zM774.864927 534.258522h-71.110889c-11.042275 0-19.996875-8.954601-19.996875-19.996875s8.954601-19.996875 19.996875-19.996876h71.110889c11.042275 0 19.996875 8.954601 19.996876 19.996876s-8.952601 19.996875-19.996876 19.996875zM747.799156 640.591908a19.936885 19.936885 0 0 1-14.13979-5.857085c-7.80878-7.80878-7.80878-20.470801 0-28.281581l50.284143-50.282144c7.812779-7.80678 20.470801-7.804781 28.281581 0 7.80878 7.80878 7.80878 20.470801 0 28.281581l-50.284143 50.282144a19.948883 19.948883 0 0 1-14.141791 5.857085zM960.467927 640.591908a19.936885 19.936885 0 0 1-14.139791-5.857085l-50.282143-50.282144c-7.80878-7.80878-7.80878-20.470801 0-28.281581 7.81078-7.80678 20.468802-7.80678 28.281581 0l50.282143 50.282144c7.80878 7.80878 7.80878 20.470801 0 28.281581a19.948883 19.948883 0 0 1-14.14179 5.857085zM1004.513045 534.258522h-71.110889c-11.042275 0-19.996875-8.954601-19.996876-19.996875s8.954601-19.996875 19.996876-19.996876h71.110889c11.042275 0 19.996875 8.954601 19.996875 19.996876s-8.954601 19.996875-19.996875 19.996875zM910.185783 478.20728a19.936885 19.936885 0 0 1-14.13979-5.857085c-7.80878-7.80878-7.80878-20.470801 0-28.281581l50.282143-50.284143c7.81078-7.80678 20.468802-7.80678 28.281581 0 7.80878 7.80878 7.80878 20.470801 0 28.281581l-50.282143 50.284143a19.946883 19.946883 0 0 1-14.141791 5.857085z" fill="#69EBFC" p-id="4895"></path><path d="M854.134541 544.70689l24.018248 12.628026c2.801562 1.47377 6.07705-0.905858 5.541134-4.025371l-4.587283-26.745821 19.430963-18.94104c2.267646-2.209655 1.015841-6.059053-2.117669-6.514982l-26.853804-3.90139-12.010123-24.334198c-1.401781-2.839556-5.449149-2.839556-6.84893 0l-12.010123 24.334198-26.853804 3.90139c-3.13351 0.455929-4.383315 4.305327-2.11767 6.514982l19.430964 18.94104-4.587283 26.745821c-0.535916 3.119513 2.739572 5.499141 5.541134 4.025371l24.024246-12.628026z" fill="#6770E6" p-id="4896"></path><path d="M85.416654 754.68608a9.998438 9.998438 0 0 1-9.998438-9.998437V714.988283a9.998438 9.998438 0 0 1 19.996875 0v29.69936a9.998438 9.998438 0 0 1-9.998437 9.998437zM70.363006 769.613748a9.998438 9.998438 0 0 1-9.998438 9.998438H30.665209a9.998438 9.998438 0 0 1 0-19.996876h29.699359a9.998438 9.998438 0 0 1 9.998438 9.998438zM85.290673 784.669395a9.998438 9.998438 0 0 1 9.998438 9.998438v29.69936a9.998438 9.998438 0 0 1-19.996875 0v-29.69936a9.998438 9.998438 0 0 1 9.998437-9.998438zM100.344321 769.739728a9.998438 9.998438 0 0 1 9.998438-9.998438h29.699359a9.998438 9.998438 0 0 1 0 19.996876H110.342759a9.998438 9.998438 0 0 1-9.998438-9.998438z" fill="#FF8354" p-id="4897"></path><path d="M939.887143 73.258553a9.998438 9.998438 0 0 1-9.998438-9.998437V33.560756a9.998438 9.998438 0 0 1 19.996875 0v29.69936a9.998438 9.998438 0 0 1-9.998437 9.998437zM924.833495 88.188221a9.998438 9.998438 0 0 1-9.998438 9.998437h-29.699359a9.998438 9.998438 0 0 1 0-19.996875h29.699359a9.998438 9.998438 0 0 1 9.998438 9.998438zM939.761162 103.241868a9.998438 9.998438 0 0 1 9.998438 9.998438v29.69936a9.998438 9.998438 0 0 1-19.996875 0V113.240306a9.998438 9.998438 0 0 1 9.998437-9.998438zM954.81681 88.312201a9.998438 9.998438 0 0 1 9.998438-9.998438h29.699359a9.998438 9.998438 0 0 1 0 19.996876h-29.699359a9.998438 9.998438 0 0 1-9.998438-9.998438z" fill="#69EBFC" p-id="4898"></path></svg>